<?xml version="1.0" encoding="UTF-8"?>
<svg width="77" height="79" viewBox="0 0 77 79" fill="none" xmlns="http://www.w3.org/2000/svg" class="fill-white group-hover:fill-yellow-400 transition-all duration-300" style="fill: rgb(255, 255, 255); height: 79px; transition-duration: 0.3s; transition-timing-function: cubic-bezier(0.4, 0, 0.2, 1); visibility: visible; width: 77px"><path d="M14.0848 16.7291C14.0848 13.5976 15.0134 10.5363 16.7532 7.93256C18.493 5.32878 20.9658 3.29939 23.859 2.101C26.7521 0.902612 29.9357 0.589059 33.0071 1.19999C36.0784 1.81092 38.8997 3.3189 41.114 5.53323C43.3283 7.74757 44.8363 10.5688 45.4472 13.6402C46.0582 16.7115 45.7446 19.8951 44.5462 22.7882C43.3478 25.6814 41.3184 28.1542 38.7147 29.894C36.1109 31.6338 33.0497 32.5624 29.9181 32.5624C25.7189 32.5624 21.6916 30.8943 18.7223 27.9249C15.7529 24.9556 14.0848 20.9284 14.0848 16.7291ZM48.0117 45.9812C48.5263 45.8228 49.0013 45.6645 49.4367 45.5458C49.6973 45.4884 49.9302 45.3429 50.0961 45.1338C50.2619 44.9246 50.3506 44.6647 50.3471 44.3978C50.3495 44.242 50.319 44.0875 50.2576 43.9442C50.1962 43.801 50.1053 43.6723 49.9908 43.5666C49.8257 43.451 49.6538 43.3453 49.4763 43.2499C45.8952 41.3158 41.8674 40.3601 37.7992 40.4791H21.9658C5.89501 40.4791 0.195007 52.2353 0.195007 62.3291C0.195007 71.3541 4.98459 76.1041 14.0492 76.1041H45.7158C46.1908 76.1041 46.6263 76.1041 47.0617 76.0645C48.0156 76.0328 48.3679 75.4708 48.3679 74.877C48.3343 74.5707 48.2103 74.2813 48.0117 74.0458C45.1878 70.1004 43.6908 65.3598 43.7367 60.5083V51.6812C43.7424 50.3979 44.1613 49.1506 44.9312 48.124C45.7012 47.0973 46.7813 46.346 48.0117 45.9812ZM63.271 46.4166C58.9384 48.6519 54.3805 50.4207 49.6742 51.6931V60.4924C49.808 64.477 51.1903 68.3189 53.6258 71.4753C56.0613 74.6317 59.4269 76.9432 63.2473 78.0833C67.0669 76.9425 70.4317 74.6307 72.8664 71.4743C75.3012 68.318 76.6829 64.4765 76.8165 60.4924V51.4635C72.1055 50.3626 67.5538 48.6667 63.271 46.4166Z" fill-opacity="0.8" style="fill: rgb(255, 255, 255); fill-opacity: 0.8; transform-origin: 0px 0px; visibility: visible"></path></svg>