<?xml version="1.0" encoding="UTF-8"?>
<svg width="81" height="80" viewBox="0 0 81 80" fill="none" xmlns="http://www.w3.org/2000/svg" class="fill-white group-hover:fill-yellow-400 transition-all duration-300" style="fill: rgb(255, 255, 255); height: 80px; transition-duration: 0.3s; transition-timing-function: cubic-bezier(0.4, 0, 0.2, 1); visibility: visible; width: 81px"><path d="M31.7932 20C31.1394 18.3809 30.893 16.626 31.0758 14.8895C31.2585 13.153 31.8648 11.4879 32.8413 10.0404C33.8179 8.59289 35.1348 7.40725 36.6766 6.58757C38.2184 5.76789 39.9378 5.33923 41.6839 5.33923C43.43 5.33923 45.1494 5.76789 46.6912 6.58757C48.2329 7.40725 49.5499 8.59289 50.5264 10.0404C51.503 11.4879 52.1092 13.153 52.292 14.8895C52.4747 16.626 52.2284 18.3809 51.5745 20H31.7932Z" fill-opacity="0.8" style="fill: rgb(255, 255, 255); fill-opacity: 0.8; transform-origin: 0px 0px; visibility: visible"></path><path d="M79.0172 31.9999C79.0172 29.1709 77.8934 26.4578 75.893 24.4574C73.8926 22.4571 71.1795 21.3333 68.3506 21.3333H65.6839V26.6666H68.3506C69.7651 26.6666 71.1216 27.2285 72.1218 28.2287C73.122 29.2289 73.6839 30.5854 73.6839 31.9999C73.682 33.3714 73.1507 34.6892 72.2007 35.6784C71.2507 36.6676 69.9555 37.2519 68.5852 37.3093C64.9372 30.2039 57.5532 25.3333 49.0172 25.3333C49.0172 25.3333 28.3506 25.3666 28.3506 25.3333C28.3506 20.9373 24.8012 17.3333 20.3506 17.3333C19.6266 17.3333 19.0172 17.9413 19.0172 18.6666V28.5026C14.6525 31.1341 11.3348 35.1971 9.62923 39.9999H5.6839C4.62303 39.9999 3.60562 40.4213 2.85547 41.1715C2.10533 41.9216 1.6839 42.9391 1.6839 43.9999V50.6666C1.6839 51.7275 2.10533 52.7449 2.85547 53.495C3.60562 54.2452 4.62303 54.6666 5.6839 54.6666H9.62923C11.5102 59.9668 15.3456 64.3479 20.3506 66.9133V71.9999C20.3506 72.7072 20.6315 73.3854 21.1316 73.8855C21.6317 74.3856 22.31 74.6666 23.0172 74.6666H29.6839C30.3911 74.6666 31.0694 74.3856 31.5695 73.8855C32.0696 73.3854 32.3506 72.7072 32.3506 71.9999V69.3333H47.0172V71.9999C47.0172 72.7072 47.2982 73.3854 47.7983 73.8855C48.2984 74.3856 48.9767 74.6666 49.6839 74.6666H56.3506C57.0578 74.6666 57.7361 74.3856 58.2362 73.8855C58.7363 73.3854 59.0172 72.7072 59.0172 71.9999V66.9133C66.1346 63.2706 71.0172 55.8799 71.0172 47.3333C71.0172 45.6546 70.8119 44.0279 70.4572 42.4573C72.8718 41.97 75.0434 40.6624 76.6037 38.7564C78.1639 36.8503 79.0167 34.4631 79.0172 31.9999ZM25.0172 42.6666C24.1332 42.6666 23.2853 42.3154 22.6602 41.6903C22.0351 41.0652 21.6839 40.2173 21.6839 39.3333C21.6839 38.4492 22.0351 37.6014 22.6602 36.9762C23.2853 36.3511 24.1332 35.9999 25.0172 35.9999C25.9013 35.9999 26.7491 36.3511 27.3743 36.9762C27.9994 37.6014 28.3506 38.4492 28.3506 39.3333C28.3506 40.2173 27.9994 41.0652 27.3743 41.6903C26.7491 42.3154 25.9013 42.6666 25.0172 42.6666Z" fill-opacity="0.8" style="fill: rgb(255, 255, 255); fill-opacity: 0.8; transform-origin: 0px 0px; visibility: visible"></path></svg>