<?xml version="1.0" encoding="UTF-8"?>
<svg width="59" height="80" viewBox="0 0 59 80" fill="none" xmlns="http://www.w3.org/2000/svg" class="fill-white group-hover:fill-yellow-400 transition-all duration-300" style="fill: rgb(255, 255, 255); height: 80px; transition-duration: 0.3s; transition-timing-function: cubic-bezier(0.4, 0, 0.2, 1); visibility: visible; width: 59px"><path d="M56.1263 41.9701C54.2677 39.5667 51.4631 37.9159 47.7126 37.0187C52.4886 34.5826 54.5875 30.4478 54.0112 24.6138C53.8186 22.4982 53.2339 20.6647 52.2559 19.1106C51.2772 17.5562 49.9564 16.3065 48.2887 15.3611C46.6222 14.4146 44.8098 13.694 42.8556 13.1973C40.9008 12.7005 38.6566 12.3398 36.1245 12.1157V0H28.7212V11.779C27.4392 11.779 25.4841 11.811 22.8561 11.8752V0H15.4518V12.1157C14.3938 12.1478 12.8395 12.1642 10.7883 12.1642L0.596039 12.1157V20.0006H5.9323C8.3683 20.0006 9.79461 21.0906 10.2112 23.2698V37.0684C10.5322 37.0684 10.7883 37.0849 10.9808 37.1169H10.2112V56.4434C9.95509 58.0777 9.02571 58.8956 7.42293 58.8956H2.08701L0.596375 67.694H10.2121C10.8211 67.694 11.702 67.7021 12.8564 67.7166C14.01 67.7328 14.8751 67.7409 15.4522 67.7409V80.0005H22.8577V67.885C24.2035 67.9178 26.1585 67.9335 28.7227 67.9335V80.0005H36.1262V67.7409C38.755 67.6129 41.0866 67.3738 43.121 67.02C45.1563 66.6662 47.104 66.1142 48.9626 65.3604C50.821 64.6077 52.3753 63.6696 53.6251 62.5477C54.8756 61.4269 55.9083 59.9999 56.7271 58.2688C57.5431 56.5377 58.0646 54.5345 58.2883 52.2583C58.7067 47.8043 57.9852 44.3744 56.1263 41.9701ZM23.0001 20.528C23.2246 20.528 23.8576 20.5199 24.8993 20.5038C25.9415 20.4873 26.8065 20.4714 27.4956 20.4553C28.1848 20.4394 29.1144 20.4795 30.2847 20.5757C31.4546 20.6718 32.44 20.8003 33.2411 20.9603C34.0421 21.1202 34.9243 21.3848 35.885 21.7534C36.8474 22.1217 37.6161 22.5706 38.1924 23.0994C38.7698 23.6281 39.2585 24.3016 39.6584 25.119C40.0595 25.9362 40.2599 26.8736 40.2599 27.9311C40.2599 28.8287 40.1159 29.6462 39.8278 30.3838C39.5402 31.1209 39.1064 31.738 38.5302 32.2348C37.9538 32.7317 37.3597 33.1649 36.7506 33.5331C36.1422 33.9014 35.3642 34.1981 34.419 34.4223C33.4739 34.6467 32.6486 34.823 31.9439 34.951C31.2387 35.0793 30.3575 35.1677 29.2996 35.2156C28.2416 35.2634 27.44 35.2961 26.8954 35.3119C26.3503 35.3277 25.6054 35.3277 24.6595 35.3119C23.7135 35.2961 23.1613 35.2876 23.0006 35.2876V20.5278L23.0001 20.528ZM43.2176 53.2685C42.9123 54.0061 42.5203 54.6475 42.0399 55.1927C41.5586 55.7367 40.9253 56.2179 40.1404 56.634C39.3556 57.0513 38.5937 57.3873 37.8571 57.6437C37.1195 57.9012 36.2297 58.1243 35.1891 58.3173C34.146 58.5098 33.2331 58.6452 32.4471 58.7258C31.6622 58.8062 30.7251 58.87 29.6349 58.9185C28.5455 58.9656 27.6956 58.9901 27.0869 58.9901C26.4778 58.9901 25.7084 58.9813 24.7789 58.9656C23.8488 58.9506 23.2564 58.9426 22.9998 58.9426V42.6916C23.2559 42.6916 24.0172 42.676 25.2836 42.6433C26.5501 42.611 27.5832 42.596 28.3846 42.596C29.1858 42.596 30.292 42.6433 31.7028 42.7401C33.1122 42.8356 34.2982 42.9792 35.2606 43.1715C36.2218 43.3642 37.2707 43.6602 38.4094 44.0613C39.5469 44.4618 40.4689 44.9505 41.1743 45.5274C41.8795 46.1053 42.4721 46.8414 42.9527 47.7391C43.4345 48.6363 43.6748 49.6622 43.6748 50.8163C43.6746 51.7147 43.5226 52.5308 43.2176 53.2685Z" style="fill: rgb(255, 255, 255); transform-origin: 0px 0px; visibility: visible"></path></svg>