<?xml version="1.0" encoding="UTF-8"?>
<svg width="45" height="73" viewBox="0 0 45 73" fill="none" xmlns="http://www.w3.org/2000/svg" class="fill-white group-hover:fill-yellow-400 transition-all duration-300" style="fill: rgb(255, 255, 255); height: 73px; transition-duration: 0.3s; transition-timing-function: cubic-bezier(0.4, 0, 0.2, 1); visibility: visible; width: 45px"><path d="M42.6274 56.8916C41.0689 59.415 38.7866 61.4932 35.7808 63.0889C32.7563 64.6846 29.1938 65.5752 25.0562 65.7422V72.3477H19.8423V65.6494C14.0718 65.167 9.43311 63.4414 5.88916 60.4727C2.34522 57.5039 0.471191 53.4775 0.26709 48.3564H15.1108C15.4448 51.6221 17.022 53.7187 19.8423 54.6465V41.751C15.5933 40.6562 12.2163 39.5986 9.67432 38.5596C7.15088 37.5205 4.92432 35.8691 3.03174 33.5869C1.12061 31.3047 0.174316 28.1689 0.174316 24.1982C0.174316 19.2441 2.01123 15.2734 5.68506 12.2861C9.35889 9.29883 14.0718 7.61035 19.8423 7.2207V0.633789H25.0562V7.23926C30.771 7.68457 35.2798 9.33594 38.6011 12.2119C41.9224 15.0879 43.7593 19.0957 44.1489 24.1982H29.2124C28.8784 21.2666 27.5054 19.3555 25.0562 18.4834V31.1377C29.5649 32.3809 33.0532 33.5127 35.5024 34.4775C37.9517 35.4609 40.1411 37.0752 42.0708 39.3389C44.0005 41.6025 44.9653 44.6826 44.9653 48.5977C44.9653 51.5479 44.1675 54.4053 42.6274 56.8916ZM16.187 27C17.022 27.9277 18.2466 28.7441 19.8237 29.4492V18.1123C18.3022 18.3906 17.0962 18.9658 16.2427 19.875C15.3706 20.7656 14.9438 22.0088 14.9438 23.5859C14.9253 24.9219 15.3521 26.0723 16.187 27ZM28.9155 52.9395C29.8618 51.9004 30.3442 50.6201 30.3442 49.0986C30.3442 47.6885 29.8989 46.5381 28.9897 45.6289C28.0991 44.7383 26.7817 43.959 25.0376 43.3096V54.8877C26.6704 54.6279 27.9692 53.9785 28.9155 52.9395Z" fill-opacity="0.8" style="fill: rgb(255, 255, 255); fill-opacity: 0.8; transform-origin: 0px 0px; visibility: visible"></path></svg>