<?xml version="1.0" encoding="UTF-8"?>
<svg width="81" height="80" viewBox="0 0 81 80" fill="none" xmlns="http://www.w3.org/2000/svg" class="fill-white group-hover:fill-yellow-400 transition-all duration-300" style="fill: rgb(255, 255, 255); height: 80px; transition-duration: 0.3s; transition-timing-function: cubic-bezier(0.4, 0, 0.2, 1); visibility: visible; width: 81px"><g clip-path="url(#clip0_838_55)" style="clip-path: url(&quot;#clip0_838_55&quot;); fill: rgb(255, 255, 255); transform-origin: 0px 0px; visibility: visible"><path fill-rule="evenodd" clip-rule="evenodd" d="M67.1898 45.5576C67.23 45.68 67.294 45.7933 67.378 45.891C67.4619 45.9886 67.5644 46.0688 67.6793 46.1269C67.7943 46.185 67.9196 46.2199 68.0481 46.2296C68.1765 46.2393 68.3056 46.2235 68.428 46.1833C68.5504 46.1431 68.6637 46.0792 68.7614 45.9952C68.859 45.9112 68.9392 45.8088 68.9973 45.6938C69.0554 45.5788 69.0903 45.4535 69.1 45.3251C69.1097 45.1966 69.0939 45.0675 69.0537 44.9451C68.1489 42.1717 65.8828 40.8592 63.6864 40.624V38.3008C63.6864 38.0392 63.5825 37.7884 63.3976 37.6035C63.2126 37.4185 62.9618 37.3147 62.7003 37.3147C62.4388 37.3147 62.1879 37.4185 62.003 37.6035C61.8181 37.7884 61.7142 38.0392 61.7142 38.3008V40.7014C59.077 41.2065 57.3059 43.2242 57.275 45.7903C57.2281 49.9543 59.525 51.2575 61.7142 51.9342V59.7672C60.384 59.3148 59.0537 58.2847 58.1644 56.5143C58.0454 56.2839 57.8404 56.1095 57.5939 56.0291C57.3473 55.9487 57.0789 55.9687 56.847 56.0848C56.615 56.2008 56.4382 56.4036 56.3547 56.6492C56.2712 56.8948 56.2879 57.1633 56.4011 57.3967C57.6848 59.9559 59.7265 61.3295 61.7136 61.8075V64.2947C61.7136 64.5562 61.8175 64.807 62.0024 64.9919C62.1873 65.1769 62.4381 65.2808 62.6997 65.2808C62.9612 65.2808 63.212 65.1769 63.3969 64.9919C63.5819 64.807 63.6858 64.5562 63.6858 64.2947V61.9978C64.0477 61.9805 64.4074 61.9316 64.7608 61.8517C67.3748 61.2515 69.0145 59.1501 69.0531 56.3673C69.1156 51.8686 66.1373 51.0425 63.6858 50.4262V42.6072C65.1397 42.8298 66.5937 43.7378 67.1892 45.5576H67.1898ZM59.2397 45.8125C59.2628 44.0359 60.4539 43.0801 61.7145 42.7212V49.8683C60.1909 49.3058 59.2087 48.3817 59.2397 45.8125ZM67.0897 56.3408C67.0664 58.1992 66.0301 59.5439 64.3286 59.9354C64.1171 59.9816 63.9026 60.0129 63.6867 60.0292V52.457C65.9523 53.0603 67.1283 53.6814 67.0897 56.3411V56.3408ZM43.1376 51.2968C43.1376 51.4237 43.1376 51.5498 43.1453 51.6742C41.3515 51.6622 39.5598 51.5527 37.7779 51.3461V43.4423C39.7041 43.6552 41.6406 43.7608 43.5784 43.7587C43.9418 43.7587 44.2972 43.754 44.6534 43.747C43.6512 46.1376 43.1359 48.7041 43.1378 51.2962L43.1376 51.2968ZM0.299194 40.0689C1.31232 40.8754 2.71998 41.6001 4.49107 42.2251C8.13373 43.5153 12.952 44.2251 18.0564 44.2251C23.1531 44.2251 27.9712 43.5153 31.6217 42.2251C33.3928 41.6001 34.7926 40.8756 35.8136 40.0689V46.0703C35.8136 47.3515 34.0039 48.7556 30.9798 49.8243C27.5383 51.0395 22.952 51.7076 18.0564 51.7076C13.1608 51.7076 8.56685 51.0395 5.13294 49.8243C2.10888 48.7556 0.299194 47.3518 0.299194 46.0703V40.0689ZM45.6273 41.75C44.9545 41.7764 44.2661 41.7926 43.5778 41.7926C41.6395 41.795 39.7027 41.6845 37.7773 41.4615V36.6187C37.7773 35.4176 37.1664 34.3039 35.9831 33.3109C38.4971 33.6875 41.0357 33.8755 43.5778 33.8734C50.6156 33.8734 57.9784 32.435 61.3969 29.7126V31.7775C58.1466 31.9981 55.0026 33.0255 52.2492 34.7667C49.4958 36.5079 47.2199 38.908 45.6273 41.75ZM29.9744 22.3883C28.1956 21.7603 26.7881 21.0317 25.767 20.222V26.25C25.7748 27.5368 27.5845 28.9445 30.6164 30.0172C34.0656 31.2359 38.6673 31.9065 43.5784 31.9065C48.4972 31.9065 53.0989 31.2347 56.5483 30.0172C59.5795 28.9445 61.3897 27.5368 61.3975 26.25V20.222C60.3765 21.0325 58.969 21.7603 57.1901 22.3883C53.532 23.6822 48.6983 24.3943 43.5784 24.3943C38.4662 24.3943 33.6326 23.6822 29.9744 22.3883ZM43.5784 11.107C53.7795 11.107 61.3975 14.0954 61.3975 16.7675C61.3975 19.4395 53.7795 22.4272 43.5784 22.4272C33.3851 22.4272 25.767 19.4387 25.767 16.7675C25.767 14.0962 33.3851 11.1067 43.5784 11.1067V11.107ZM18.0564 30.979C7.89388 30.979 0.299194 33.9559 0.299194 36.6187C0.299194 39.2815 7.89388 42.2575 18.0564 42.2575C28.2189 42.2575 35.8136 39.2812 35.8136 36.6187C35.8136 33.9562 28.2187 30.979 18.0564 30.979ZM5.13294 59.6783C8.56685 60.8933 13.1608 61.5615 18.0564 61.5615C22.952 61.5615 27.5383 60.8933 30.9798 59.6783C34.0039 58.6093 35.8136 57.205 35.8136 55.9226V49.5312C32.3951 52.242 25.0636 53.6751 18.0564 53.6751C11.0417 53.6751 3.71763 52.242 0.299194 49.5312V55.9218C0.299194 57.2042 2.10888 58.6093 5.13294 59.6775V59.6783ZM43.5784 61.5615C40.1214 61.5615 36.7725 61.2212 33.8878 60.5886C36.2775 59.3836 37.7784 57.8214 37.7784 55.9226V53.3281C39.6046 53.5287 41.4401 53.6337 43.2773 53.6428C43.6172 56.4282 44.5508 59.1083 46.015 61.5022C45.2107 61.5401 44.3987 61.5597 43.5789 61.5611L43.5784 61.5615ZM62.7045 68.8932C59.2242 68.8936 55.8219 67.8619 52.928 65.9286C50.0341 63.9952 47.7784 61.2472 46.4463 58.0319C45.1142 54.8166 44.7655 51.2785 45.4443 47.865C46.123 44.4515 47.7988 41.316 50.2596 38.8549C52.7205 36.3938 55.8559 34.7178 59.2693 34.0387C62.6827 33.3596 66.2208 33.7079 69.4362 35.0397C72.6517 36.3715 75.3999 38.6269 77.3335 41.5206C79.2671 44.4144 80.2992 47.8165 80.2992 51.2968C80.2932 55.9616 78.4376 60.4335 75.1393 63.7322C71.841 67.0308 67.3692 68.8868 62.7045 68.8932Z" fill-opacity="0.8" style="fill: rgb(255, 255, 255); fill-opacity: 0.8; fill-rule: evenodd; transform-origin: 0px 0px; visibility: visible"></path></g></svg>