<?xml version="1.0" encoding="UTF-8"?>
<svg width="55" height="54" viewBox="0 0 55 54" fill="none" xmlns="http://www.w3.org/2000/svg" class="fill-white group-hover:fill-[#FDC145] transition-all duration-300" style="fill: rgb(255, 255, 255); height: 54px; transition-duration: 0.3s; transition-timing-function: cubic-bezier(0.4, 0, 0.2, 1); visibility: visible; width: 55px"><path d="M17.375 43.0312C17.3751 45.0818 17.9977 47.0839 19.1605 48.7728C20.3234 50.4618 21.9716 51.7578 23.8871 52.4895C25.8027 53.2212 27.8952 53.354 29.8879 52.8704C31.8806 52.3868 33.6794 51.3096 35.0465 49.7812L33.7893 48.6565C32.4746 50.1266 30.6864 51.0897 28.7355 51.3785C26.7845 51.6673 24.794 51.2635 23.1098 50.2373C21.4256 49.2111 20.1541 47.6274 19.5161 45.7612C18.8782 43.895 18.9141 41.8643 19.6177 40.0218C20.3213 38.1794 21.6481 36.6416 23.3676 35.6757C25.087 34.7098 27.0906 34.3767 29.0301 34.7343C30.9696 35.092 32.7226 36.1178 33.9844 37.6335C35.2463 39.1492 35.9373 41.059 35.9375 43.0312C35.9375 43.2928 35.9122 43.551 35.8886 43.81L34.925 42.525L33.575 43.5375L36.1063 46.9125C36.1848 47.0173 36.2868 47.1023 36.4039 47.1609C36.5211 47.2195 36.6503 47.25 36.7812 47.25C36.9122 47.25 37.0414 47.2195 37.1586 47.1609C37.2757 47.1023 37.3777 47.0173 37.4562 46.9125L39.9875 43.5375L38.6375 42.525L37.5676 43.9518C37.5946 43.6463 37.625 43.3401 37.625 43.0312C37.625 40.3459 36.5583 37.7706 34.6595 35.8718C32.7607 33.973 30.1853 32.9062 27.5 32.9062C24.8147 32.9062 22.2393 33.973 20.3405 35.8718C18.4417 37.7706 17.375 40.3459 17.375 43.0312Z" style="fill: rgb(255, 255, 255); transform-origin: 0px 0px; visibility: visible"></path><path d="M26.6562 43.3536L23.7478 44.8073L24.5022 46.3177L27.8772 44.6302C28.0174 44.5601 28.1354 44.4523 28.2178 44.3189C28.3002 44.1855 28.3438 44.0318 28.3438 43.875V37.125H26.6562V43.3536ZM41.8438 42.1875H53.6562V43.875H41.8438V42.1875ZM1.34375 42.1875H15.6875V43.875H1.34375V42.1875ZM11.4688 40.5V21.9375C11.4688 21.7137 11.3799 21.4991 11.2216 21.3409C11.0634 21.1826 10.8488 21.0938 10.625 21.0938H3.875C3.65122 21.0938 3.43661 21.1826 3.27838 21.3409C3.12014 21.4991 3.03125 21.7137 3.03125 21.9375V40.5H4.71875V22.7812H9.78125V40.5H11.4688ZM24.125 12.6562H17.375C17.1512 12.6562 16.9366 12.7451 16.7784 12.9034C16.6201 13.0616 16.5312 13.2762 16.5312 13.5V35.4375H18.2188V14.3438H23.2812V31.2188H24.9688V13.5C24.9688 13.2762 24.8799 13.0616 24.7216 12.9034C24.5634 12.7451 24.3488 12.6562 24.125 12.6562ZM38.4688 35.4375V21.9375C38.4688 21.7137 38.3799 21.4991 38.2216 21.3409C38.0634 21.1826 37.8488 21.0938 37.625 21.0938H30.875C30.6512 21.0938 30.4366 21.1826 30.2784 21.3409C30.1201 21.4991 30.0312 21.7137 30.0312 21.9375V31.2188H31.7188V22.7812H36.7812V35.4375H38.4688ZM51.9688 40.5V13.5C51.9688 13.2762 51.8799 13.0616 51.7216 12.9034C51.5634 12.7451 51.3488 12.6562 51.125 12.6562H44.375C44.1512 12.6562 43.9366 12.7451 43.7784 12.9034C43.6201 13.0616 43.5312 13.2762 43.5312 13.5V40.5H45.2188V14.3438H50.2812V40.5H51.9688Z" style="fill: rgb(255, 255, 255); transform-origin: 0px 0px; visibility: visible"></path><path d="M47.75 7.59375C48.4175 7.59375 49.07 7.39581 49.625 7.02496C50.18 6.65411 50.6126 6.12701 50.8681 5.51031C51.1235 4.89361 51.1904 4.21501 51.0601 3.56032C50.9299 2.90564 50.6085 2.30427 50.1365 1.83227C49.6645 1.36026 49.0631 1.03883 48.4084 0.908601C47.7537 0.778376 47.0751 0.845212 46.4584 1.10066C45.8417 1.3561 45.3146 1.78869 44.9438 2.3437C44.5729 2.89872 44.375 3.55124 44.375 4.21875C44.3786 4.56294 44.4356 4.90448 44.5437 5.23125L36.5652 10.2094C35.9296 9.60106 35.0804 9.26668 34.2007 9.2782C33.3209 9.28972 32.4808 9.64622 31.8613 10.271L23.1378 5.13844C23.2285 4.84013 23.2768 4.53053 23.2812 4.21875C23.281 3.72021 23.1702 3.22791 22.957 2.77725C22.7438 2.32659 22.4335 1.92876 22.0482 1.61236C21.6629 1.29595 21.2123 1.06884 20.7288 0.947327C20.2453 0.825818 19.7409 0.812938 19.2518 0.909611C18.7627 1.00628 18.3011 1.21011 17.9002 1.50644C17.4993 1.80277 17.169 2.18424 16.933 2.62343C16.6971 3.06262 16.5614 3.54862 16.5357 4.04651C16.51 4.54439 16.5949 5.04178 16.7843 5.50294L8.50041 11.718C7.9084 11.2364 7.16937 10.972 6.40623 10.9688C5.68048 10.9678 4.97368 11.2003 4.39022 11.6319C3.80676 12.0635 3.37759 12.6714 3.1661 13.3656C2.95461 14.0599 2.97201 14.8037 3.21574 15.4873C3.45947 16.1709 3.9166 16.758 4.5196 17.1619C5.1226 17.5657 5.83951 17.7649 6.56442 17.73C7.28932 17.6952 7.9838 17.4281 8.54525 16.9682C9.1067 16.5083 9.50537 15.8801 9.68235 15.1762C9.85934 14.4724 9.80526 13.7303 9.5281 13.0596L17.8154 6.8445C18.4592 7.36855 19.2751 7.63392 20.104 7.58884C20.9328 7.54375 21.7151 7.19144 22.2983 6.60066L31.0184 11.7366C30.9277 12.0349 30.8794 12.3445 30.875 12.6563C30.875 13.5514 31.2306 14.4098 31.8635 15.0427C32.4964 15.6757 33.3549 16.0313 34.25 16.0313C35.1451 16.0313 36.0035 15.6757 36.6365 15.0427C37.2694 14.4098 37.625 13.5514 37.625 12.6563C37.6213 12.3121 37.5644 11.9705 37.4562 11.6438L45.4347 6.66563C46.0586 7.26093 46.8877 7.59328 47.75 7.59375ZM47.75 2.53125C48.0837 2.53125 48.41 2.63022 48.6875 2.81565C48.965 3.00107 49.1813 3.26462 49.309 3.57297C49.4367 3.88132 49.4702 4.22062 49.4051 4.54797C49.3399 4.87531 49.1792 5.17599 48.9432 5.41199C48.7072 5.648 48.4065 5.80871 48.0792 5.87383C47.7518 5.93894 47.4125 5.90552 47.1042 5.7778C46.7958 5.65008 46.5323 5.43378 46.3469 5.15628C46.1614 4.87877 46.0625 4.55251 46.0625 4.21875C46.0625 3.7712 46.2403 3.34198 46.5567 3.02551C46.8732 2.70904 47.3024 2.53125 47.75 2.53125ZM6.40623 16.0313C6.07247 16.0313 5.74621 15.9323 5.4687 15.7469C5.19119 15.5614 4.9749 15.2979 4.84718 14.9895C4.71946 14.6812 4.68604 14.3419 4.75115 14.0145C4.81626 13.6872 4.97698 13.3865 5.21298 13.1505C5.44898 12.9145 5.74967 12.7538 6.07701 12.6887C6.40435 12.6236 6.74365 12.657 7.052 12.7847C7.36035 12.9124 7.62391 13.1287 7.80933 13.4062C7.99476 13.6837 8.09373 14.01 8.09373 14.3438C8.09373 14.7913 7.91594 15.2205 7.59947 15.537C7.283 15.8535 6.85378 16.0313 6.40623 16.0313ZM19.9062 5.90625C19.5725 5.90625 19.2462 5.80728 18.9687 5.62186C18.6912 5.43643 18.4749 5.17288 18.3472 4.86453C18.2195 4.55618 18.186 4.21688 18.2511 3.88954C18.3163 3.56219 18.477 3.26151 18.713 3.02551C18.949 2.78951 19.2497 2.62879 19.577 2.56368C19.9044 2.49856 20.2437 2.53198 20.552 2.6597C20.8604 2.78743 21.1239 3.00372 21.3093 3.28123C21.4948 3.55873 21.5937 3.885 21.5937 4.21875C21.5937 4.6663 21.4159 5.09553 21.0995 5.41199C20.783 5.72846 20.3538 5.90625 19.9062 5.90625ZM34.25 14.3438C33.9162 14.3438 33.59 14.2448 33.3124 14.0594C33.0349 13.8739 32.8187 13.6104 32.6909 13.302C32.5632 12.9937 32.5298 12.6544 32.5949 12.327C32.66 11.9997 32.8207 11.699 33.0567 11.463C33.2927 11.227 33.5934 11.0663 33.9208 11.0012C34.2481 10.9361 34.5874 10.9695 34.8958 11.0972C35.2041 11.2249 35.4677 11.4412 35.6531 11.7187C35.8385 11.9962 35.9375 12.3225 35.9375 12.6563C35.9375 13.1038 35.7597 13.533 35.4432 13.8495C35.1268 14.166 34.6975 14.3438 34.25 14.3438Z" style="fill: rgb(255, 255, 255); transform-origin: 0px 0px; visibility: visible"></path></svg>