<?xml version="1.0" encoding="UTF-8"?>
<svg width="101" height="101" viewBox="0 0 101 101" fill="none" xmlns="http://www.w3.org/2000/svg" class="fill-white group-hover:fill-[#FDC145] transition-all duration-300" style="fill: rgb(255, 255, 255); height: 101px; transition-duration: 0.3s; transition-timing-function: cubic-bezier(0.4, 0, 0.2, 1); visibility: visible; width: 101px"><path d="M93.3344 42.1282L87.0844 35.8782C86.7961 35.5798 86.4513 35.3417 86.07 35.1779C85.6887 35.0141 85.2787 34.9279 84.8637 34.9243C84.4488 34.9207 84.0373 34.9998 83.6533 35.1569C83.2692 35.314 82.9203 35.5461 82.6269 35.8395C82.3335 36.1329 82.1014 36.4818 81.9443 36.8659C81.7872 37.2499 81.7081 37.6614 81.7117 38.0764C81.7153 38.4913 81.8015 38.9013 81.9653 39.2826C82.1291 39.6639 82.3671 40.0087 82.6656 40.297L83.5812 41.2126H59.875C59.0462 41.2126 58.2513 41.5418 57.6653 42.1279C57.0792 42.7139 56.75 43.5088 56.75 44.3376V66.2126H34.875C34.0462 66.2126 33.2513 66.5418 32.6653 67.1279C32.0792 67.7139 31.75 68.5088 31.75 69.3376V88.0876H9.875C9.0462 88.0876 8.25134 88.4168 7.66529 89.0029C7.07924 89.5889 6.75 90.3838 6.75 91.2126C6.75 92.0414 7.07924 92.8363 7.66529 93.4223C8.25134 94.0084 9.0462 94.3376 9.875 94.3376H34.875C35.7038 94.3376 36.4987 94.0084 37.0847 93.4223C37.6708 92.8363 38 92.0414 38 91.2126V72.4626H59.875C60.7038 72.4626 61.4987 72.1334 62.0847 71.5473C62.6708 70.9613 63 70.1664 63 69.3376V47.4626H83.5812L82.6656 48.3782C82.3671 48.6665 82.1291 49.0113 81.9653 49.3926C81.8015 49.7738 81.7153 50.1839 81.7117 50.5988C81.7081 51.0138 81.7872 51.4253 81.9443 51.8093C82.1014 52.1934 82.3335 52.5423 82.6269 52.8357C82.9203 53.1291 83.2692 53.3612 83.6533 53.5183C84.0373 53.6754 84.4488 53.7545 84.8637 53.7509C85.2787 53.7473 85.6887 53.6611 86.07 53.4973C86.4513 53.3335 86.7961 53.0954 87.0844 52.797L93.3344 46.547C93.9202 45.9609 94.2493 45.1662 94.2493 44.3376C94.2493 43.509 93.9202 42.7142 93.3344 42.1282ZM74.3531 28.3876C73.0719 28.8188 71.685 28.8199 70.4031 28.3907L59.875 24.8813V28.7126C59.875 30.0563 60.7344 31.2501 62.0125 31.6751L71.3875 34.8001C72.0287 35.0127 72.7213 35.0127 73.3625 34.8001L82.7375 31.6751C83.3598 31.4683 83.9011 31.0709 84.2848 30.5391C84.6685 30.0074 84.875 29.3683 84.875 28.7126V24.8813L74.3531 28.3876Z" style="fill: rgb(255, 255, 255); transform-origin: 0px 0px; visibility: visible"></path><path d="M92.1125 13.2472L73.3625 6.99719C72.7214 6.78414 72.0286 6.78414 71.3875 6.99719L52.6375 13.2472C52.0142 13.4533 51.4717 13.8507 51.0871 14.3828C50.7026 14.9149 50.4956 15.5547 50.4956 16.2113C50.4956 16.8678 50.7026 17.5076 51.0871 18.0397C51.4717 18.5719 52.0142 18.9692 52.6375 19.1753L71.3875 25.4253C72.0287 25.6379 72.7213 25.6379 73.3625 25.4253L88 20.5472V31.8378C88 32.6666 88.3292 33.4615 88.9153 34.0475C89.5013 34.6336 90.2962 34.9628 91.125 34.9628C91.9538 34.9628 92.7487 34.6336 93.3347 34.0475C93.9208 33.4615 94.25 32.6666 94.25 31.8378V16.2128C94.2506 15.5566 94.0444 14.9168 93.6607 14.3844C93.277 13.852 92.7353 13.4541 92.1125 13.2472ZM47.375 27.8878V52.2441C46.3922 51.6984 45.3414 51.2854 44.25 51.0159V26.1191C45.3781 26.4941 46.4344 27.0878 47.375 27.8878ZM41.2406 25.5878H41.125V50.5878C38.9562 50.5878 36.8094 51.1722 34.875 52.2441V27.8878C36.6499 26.3783 38.9108 25.5614 41.2406 25.5878ZM41.125 53.7034V53.7128H41.2406C43.0571 53.7264 44.8335 54.2482 46.3688 55.2191L41.125 63.0878L35.8812 55.2191C37.4491 54.2246 39.2684 53.6987 41.125 53.7034ZM34.875 24.1191V22.4628C34.875 20.8052 35.5335 19.2155 36.7056 18.0434C37.8777 16.8713 39.4674 16.2128 41.125 16.2128C42.7826 16.2128 44.3723 16.8713 45.5444 18.0434C46.7165 19.2155 47.375 20.8052 47.375 22.4628V24.1191C45.4607 23.0645 43.3106 22.5115 41.125 22.5115C38.9394 22.5115 36.7893 23.0645 34.875 24.1191ZM22.375 49.7628V74.1191C21.3922 73.5734 20.3414 73.1605 19.25 72.8909V47.9941C20.3781 48.3691 21.4344 48.9628 22.375 49.7628ZM16.2406 47.4628H16.125V72.4628C13.9563 72.4628 11.8094 73.0472 9.875 74.1191V49.7628C11.6499 48.2533 13.9108 47.4364 16.2406 47.4628ZM16.125 75.5784V75.5878H16.2406C18.0571 75.6014 19.8335 76.1232 21.3687 77.0941L16.125 84.9628L10.8813 77.0941C12.4491 76.0996 14.2684 75.5738 16.125 75.5784ZM9.875 45.9941V44.3378C9.875 42.6802 10.5335 41.0905 11.7056 39.9184C12.8777 38.7463 14.4674 38.0878 16.125 38.0878C17.7826 38.0878 19.3723 38.7463 20.5444 39.9184C21.7165 41.0905 22.375 42.6802 22.375 44.3378V45.9941C20.4607 44.9395 18.3106 44.3865 16.125 44.3865C13.9394 44.3865 11.7893 44.9395 9.875 45.9941Z" style="fill: rgb(255, 255, 255); transform-origin: 0px 0px; visibility: visible"></path></svg>