<?xml version="1.0" encoding="UTF-8"?>
<svg width="54" height="54" viewBox="0 0 54 54" fill="none" xmlns="http://www.w3.org/2000/svg" class="fill-white group-hover:fill-[#FDC145] transition-all duration-300" style="fill: rgb(255, 255, 255); height: 54px; transition-duration: 0.3s; transition-timing-function: cubic-bezier(0.4, 0, 0.2, 1); visibility: visible; width: 54px"><path d="M48.4119 5.59477C40.9522 -1.86493 28.8132 -1.86493 21.3535 5.59477C14.1041 12.8445 13.9359 24.5111 20.802 32.009L18.5622 34.2482C17.0335 33.2755 15.0455 33.4907 13.7635 34.7735C9.11445 39.4223 18.6077 29.9293 1.13416 47.402C-0.372356 48.9092 -0.372356 51.3601 1.13416 52.8665C2.6393 54.3734 5.08396 54.3822 6.59871 52.8665C13.8745 45.5912 -0.577914 60.0439 19.2281 40.2373C20.5058 38.9609 20.7354 36.9806 19.7554 35.4416L21.9951 33.2024C29.5792 40.1491 41.2093 39.8248 48.3958 32.6375C55.8561 25.1771 55.8629 13.0455 48.4119 5.59477ZM7.48918 49.5899L4.41181 46.5121L12.8735 38.0504L15.9511 41.128L7.48918 49.5899ZM2.32754 51.6734C1.47915 50.8246 1.47915 49.4443 2.32754 48.5954L3.21801 47.7051L6.29591 50.7832L5.40564 51.6734C4.55124 52.5277 3.17677 52.5226 2.32754 51.6734ZM18.0349 39.0441L17.1442 39.9348L14.0665 36.8571L14.9568 35.9668C15.8055 35.1181 17.1856 35.1176 18.0348 35.9668C18.2375 36.1685 18.3984 36.4083 18.5081 36.6723C18.6179 36.9363 18.6744 37.2195 18.6744 37.5054C18.6744 37.7914 18.6179 38.0745 18.5082 38.3386C18.3984 38.6026 18.2376 38.8424 18.0349 39.0441ZM47.2026 31.4442C40.4096 38.2365 29.3563 38.2365 22.5633 31.4442C15.7612 24.6421 15.7538 13.5811 22.5468 6.78805C29.3485 -0.0128939 40.4157 -0.0140542 47.2186 6.78805C54.0117 13.5811 54.0043 24.6422 47.2026 31.4442Z" style="fill: rgb(255, 255, 255); transform-origin: 0px 0px; visibility: visible"></path><path d="M43.1397 15.8311C43.0289 15.8311 42.9191 15.8529 42.8167 15.8953C42.7143 15.9377 42.6213 15.9998 42.5429 16.0782C42.4646 16.1566 42.4024 16.2496 42.36 16.352C42.3176 16.4544 42.2958 16.5641 42.2958 16.675V28.1587C42.2958 28.2695 42.3176 28.3793 42.36 28.4817C42.4025 28.584 42.4646 28.6771 42.543 28.7554C42.6213 28.8338 42.7144 28.896 42.8168 28.9384C42.9191 28.9808 43.0289 29.0026 43.1397 29.0026C43.2505 29.0026 43.3603 28.9808 43.4626 28.9384C43.565 28.896 43.6581 28.8338 43.7364 28.7554C43.8148 28.6771 43.8769 28.584 43.9193 28.4817C43.9618 28.3793 43.9836 28.2695 43.9836 28.1587V16.675C43.9836 16.5641 43.9618 16.4544 43.9194 16.352C43.877 16.2496 43.8149 16.1565 43.7365 16.0782C43.6581 15.9998 43.5651 15.9376 43.4627 15.8953C43.3603 15.8529 43.2505 15.8311 43.1397 15.8311ZM37.6373 19.1613C37.5265 19.1612 37.4167 19.1831 37.3143 19.2255C37.2119 19.2679 37.1189 19.33 37.0405 19.4084C36.9622 19.4867 36.9 19.5798 36.8576 19.6822C36.8152 19.7846 36.7934 19.8943 36.7934 20.0051V28.1587C36.7934 28.2695 36.8152 28.3793 36.8576 28.4817C36.9 28.584 36.9622 28.6771 37.0406 28.7554C37.1189 28.8338 37.212 28.896 37.3143 28.9384C37.4167 28.9808 37.5265 29.0026 37.6373 29.0026C37.7481 29.0026 37.8578 28.9808 37.9602 28.9384C38.0626 28.896 38.1557 28.8338 38.234 28.7554C38.3124 28.6771 38.3745 28.584 38.4169 28.4817C38.4593 28.3793 38.4812 28.2695 38.4811 28.1587V20.0051C38.4812 19.8943 38.4594 19.7846 38.417 19.6822C38.3746 19.5798 38.3124 19.4867 38.234 19.4084C38.1557 19.33 38.0626 19.2679 37.9603 19.2255C37.8579 19.1831 37.7481 19.1612 37.6373 19.1613ZM32.1344 16.544C32.0235 16.5439 31.9138 16.5657 31.8114 16.6081C31.709 16.6505 31.616 16.7127 31.5376 16.7911C31.4592 16.8694 31.3971 16.9625 31.3547 17.0649C31.3123 17.1673 31.2905 17.277 31.2905 17.3878V28.1588C31.2905 28.2696 31.3123 28.3794 31.3547 28.4818C31.3971 28.5841 31.4593 28.6772 31.5376 28.7555C31.616 28.8339 31.709 28.8961 31.8114 28.9385C31.9138 28.9809 32.0235 29.0027 32.1344 29.0027C32.2452 29.0027 32.3549 28.9809 32.4573 28.9385C32.5597 28.8961 32.6527 28.8339 32.7311 28.7555C32.8094 28.6772 32.8716 28.5841 32.914 28.4818C32.9564 28.3794 32.9782 28.2696 32.9782 28.1588V17.3878C32.9782 17.277 32.9564 17.1672 32.9141 17.0648C32.8717 16.9624 32.8095 16.8694 32.7311 16.791C32.6528 16.7127 32.5597 16.6505 32.4573 16.6081C32.3549 16.5657 32.2452 16.5439 32.1344 16.544ZM26.6319 20.2078C26.5211 20.2078 26.4114 20.2296 26.309 20.272C26.2066 20.3144 26.1135 20.3766 26.0352 20.4549C25.9568 20.5333 25.8947 20.6263 25.8523 20.7287C25.8099 20.8311 25.7881 20.9409 25.7881 21.0517V28.1587C25.7881 28.2695 25.8099 28.3793 25.8523 28.4817C25.8947 28.584 25.9569 28.6771 26.0352 28.7554C26.1136 28.8338 26.2066 28.896 26.309 28.9384C26.4114 28.9808 26.5211 29.0026 26.6319 29.0026C26.7428 29.0026 26.8525 28.9808 26.9549 28.9384C27.0573 28.896 27.1503 28.8338 27.2287 28.7554C27.307 28.6771 27.3692 28.584 27.4116 28.4817C27.454 28.3793 27.4758 28.2695 27.4758 28.1587V21.0517C27.4758 20.9409 27.454 20.8311 27.4116 20.7288C27.3692 20.6264 27.307 20.5333 27.2287 20.455C27.1503 20.3766 27.0573 20.3145 26.9549 20.272C26.8525 20.2296 26.7428 20.2078 26.6319 20.2078ZM38.1684 16.1665L43.3883 10.9466C43.7179 10.617 43.7179 10.0829 43.3883 9.75336C43.0587 9.42377 42.5246 9.42377 42.195 9.75336L37.5719 14.3765L32.6655 9.4707C32.3491 9.1543 31.7886 9.1543 31.4722 9.4707L26.0353 14.908C25.7057 15.2376 25.7057 15.7717 26.0353 16.1013C26.3649 16.4309 26.899 16.4309 27.2286 16.1013L32.069 11.2605L36.9753 16.1663C37.0536 16.2447 37.1466 16.3069 37.2489 16.3493C37.3513 16.3918 37.461 16.4136 37.5718 16.4137C37.6826 16.4137 37.7923 16.3919 37.8947 16.3494C37.9971 16.307 38.0901 16.2449 38.1684 16.1665Z" style="fill: rgb(255, 255, 255); transform-origin: 0px 0px; visibility: visible"></path></svg>