<?xml version="1.0" encoding="UTF-8"?>
<svg width="100" height="101" viewBox="0 0 100 101" fill="none" xmlns="http://www.w3.org/2000/svg" class="fill-white group-hover:fill-[#FDC145] transition-all duration-300" style="fill: rgb(255, 255, 255); height: 101px; transition-duration: 0.3s; transition-timing-function: cubic-bezier(0.4, 0, 0.2, 1); visibility: visible; width: 100px"><path d="M79.2969 53.5606C72.3969 53.5606 66.5564 55.3456 62.8803 58.1575L34.7307 51.1677C33.8576 48.4343 31.5775 46.0562 28.3898 44.3843L24.7965 49.7784C22.9625 52.2446 20.3332 53.5606 17.5781 53.5606C14.823 53.5606 12.1937 52.2446 10.5428 50.0388L6.76836 44.3833C2.67676 46.529 0 49.8206 0 53.5606C0 60.0327 7.86992 65.2794 17.5781 65.2794C25.4309 65.2794 32.002 61.8233 34.2572 57.0862L59.125 63.2554C58.9395 63.9138 58.7893 64.5815 58.7893 65.2796C58.7893 67.7175 59.9877 69.9271 62.0473 71.7626L49.6268 78.8601C46.4145 77.6829 42.5475 76.9981 38.2812 76.9981C26.591 76.9981 17.5781 82.0364 17.5781 88.7169C17.5781 95.3974 26.591 100.631 38.2812 100.631C49.9715 100.631 58.7891 95.3974 58.7891 88.7169C58.7891 86.279 57.5906 84.0694 55.5311 82.2339L67.9516 75.1364C71.1637 76.3134 75.0307 76.9981 79.2969 76.9981C90.9871 76.9981 100 71.9599 100 65.2794C100 58.5989 90.9871 53.5606 79.2969 53.5606Z" style="fill: rgb(255, 255, 255); transform-origin: 0px 0px; visibility: visible"></path><path d="M15.235 46.5281C15.7871 47.2662 16.6568 47.7012 17.5781 47.7012C18.4994 47.7012 19.3691 47.2662 19.9213 46.5281L31.6486 28.7461C33.9432 25.6877 35.1562 22.0457 35.1562 18.209C35.1562 8.51582 27.2713 0.630859 17.5781 0.630859C7.88496 0.630859 0 8.51582 0 18.209C0 22.0428 1.21309 25.6877 3.50762 28.7461L15.235 46.5281ZM17.5781 9.41992C22.4246 9.41992 26.3672 13.3625 26.3672 18.209C26.3672 23.0555 22.4246 26.998 17.5781 26.998C12.7316 26.998 8.78906 23.0555 8.78906 18.209C8.78906 13.3625 12.7316 9.41992 17.5781 9.41992Z" style="fill: rgb(255, 255, 255); transform-origin: 0px 0px; visibility: visible"></path></svg>