<?xml version="1.0" encoding="UTF-8"?>
<svg width="43" height="54" viewBox="0 0 43 54" fill="none" xmlns="http://www.w3.org/2000/svg" class="fill-white group-hover:fill-[#FDC145] transition-all duration-300" style="fill: rgb(255, 255, 255); height: 54px; transition-duration: 0.3s; transition-timing-function: cubic-bezier(0.4, 0, 0.2, 1); visibility: visible; width: 43px"><path d="M38.5902 32.358L39.903 31.5775C41.0293 30.905 41.8734 29.8469 42.2788 28.5995C42.6842 27.352 42.6235 25.9998 42.1078 24.7937L41.5028 23.3914C41.2941 22.9039 41.1864 22.379 41.1864 21.8486C41.1864 21.3183 41.2941 20.7934 41.5028 20.3058L42.1078 18.9018C42.6235 17.6962 42.6845 16.3444 42.2794 15.0973C41.8742 13.8501 41.0305 12.7922 39.9047 12.1198L38.5902 11.3401C38.1345 11.0682 37.7387 10.7066 37.4268 10.2774C37.1149 9.84809 36.8932 9.36001 36.7753 8.84264L36.4395 7.35173C35.8438 4.71248 33.3547 2.90517 30.6716 3.15998L29.1511 3.30005C28.6226 3.34762 28.0898 3.28766 27.5851 3.1238C27.0803 2.95994 26.6139 2.69556 26.214 2.34661L25.0665 1.33917C24.0791 0.475825 22.8121 0 21.5004 0C20.1888 0 18.9217 0.475825 17.9343 1.33917L16.7868 2.34745C16.3878 2.69711 15.9217 2.96195 15.4171 3.12585C14.9125 3.28976 14.3798 3.34931 13.8514 3.30089L12.331 3.15998C9.63942 2.90095 7.15626 4.71248 6.55973 7.35258L6.22392 8.8418C6.10626 9.35917 5.88482 9.84728 5.573 10.2766C5.26119 10.7059 4.86548 11.0674 4.40986 11.3393L3.09698 12.1198C1.97084 12.7921 1.12681 13.8501 0.721522 15.0974C0.316232 16.3448 0.377198 17.6968 0.893108 18.9027L1.49723 20.305C1.91911 21.2863 1.91911 22.411 1.49723 23.3914L0.893108 24.7946C0.377147 26.0005 0.316151 27.3527 0.721437 28.6002C1.12672 29.8477 1.97077 30.9059 3.09698 31.5783L4.40986 32.3571C4.86533 32.6292 5.26091 32.9908 5.5727 33.42C5.8845 33.8493 6.10603 34.3373 6.22392 34.8546L6.25345 34.9829L1.1572 45.0733C0.650951 46.0773 0.760639 47.2586 1.44408 48.153C1.77658 48.588 2.2263 48.9191 2.74043 49.1074C3.25457 49.2957 3.81176 49.3334 4.34658 49.2161L8.63283 48.3048L10.4469 52.2958C10.6698 52.7966 11.0313 53.2232 11.4888 53.5252C11.9463 53.8272 12.4806 53.992 13.0288 54.0001H13.0878C14.1931 54.0001 15.1803 53.3926 15.6781 52.4055L20.172 43.5123C20.609 43.622 21.052 43.698 21.5 43.698C21.9472 43.698 22.391 43.622 22.8281 43.5123L27.3219 52.4055C27.5607 52.8856 27.929 53.2894 28.3853 53.5712C28.8415 53.8531 29.3675 54.0016 29.9038 54.0001H29.9713C31.1019 53.9748 32.0891 53.3251 32.5531 52.2958L34.3588 48.3048L38.645 49.2161C39.7503 49.4523 40.8641 49.0473 41.5475 48.153C42.2394 47.2586 42.3491 46.0773 41.8428 45.0733L36.7457 34.9862L36.7753 34.8546C36.8933 34.3373 37.115 33.8492 37.4269 33.42C37.7389 32.9907 38.1346 32.63 38.5902 32.358ZM14.3366 51.7305C14.0919 52.2198 13.6025 52.5826 13.0541 52.4983C12.5056 52.4898 12.0416 52.1776 11.8138 51.6798L9.75501 47.1405C9.68481 46.983 9.56275 46.8545 9.40921 46.7761C9.25566 46.6978 9.07991 46.6745 8.91126 46.7101L4.03439 47.748C3.49439 47.8661 2.97126 47.672 2.63376 47.2333C2.29626 46.7945 2.24564 46.2376 2.49033 45.7483L6.82551 37.1614C7.26138 38.2388 8.03121 39.1481 9.02197 39.7557C10.0127 40.3633 11.1722 40.6372 12.3301 40.5373L13.8514 40.3964C14.3798 40.3462 14.9128 40.4049 15.4175 40.5689C15.9223 40.7329 16.388 40.9987 16.786 41.3498L17.9335 42.3581C18.195 42.5884 18.4752 42.7859 18.7671 42.9571L14.3366 51.7305ZM18.9232 41.23L17.7765 40.2225C17.2236 39.7394 16.5784 39.3733 15.88 39.1465C15.1815 38.9197 14.4444 38.8368 13.713 38.9029L12.1926 39.043C10.2393 39.2303 8.45395 37.92 8.0228 36.0139L7.68698 34.5239C7.5241 33.8077 7.21747 33.1322 6.7857 32.5381C6.35392 31.944 5.806 31.4438 5.17514 31.0679L3.86226 30.2891C3.04875 29.8031 2.43912 29.0385 2.14649 28.1371C1.85386 27.2358 1.89808 26.2589 2.27095 25.3877L2.87423 23.9854C3.16318 23.3101 3.31216 22.5832 3.31216 21.8486C3.31216 21.1141 3.16318 20.3872 2.87423 19.7118L2.27095 18.3095C1.89831 17.4384 1.85422 16.4617 2.14684 15.5606C2.43946 14.6595 3.04894 13.895 3.86226 13.409L5.17514 12.6285C5.80596 12.2523 6.35384 11.7519 6.7856 11.1577C7.21736 10.5636 7.52402 9.88789 7.68698 9.1717L8.0228 7.68248C8.23179 6.7575 8.7701 5.94012 9.53733 5.38278C10.3046 4.82544 11.2483 4.5662 12.1926 4.65342L13.713 4.79433C14.4445 4.86073 15.1818 4.77793 15.8803 4.55096C16.5787 4.32398 17.2239 3.95754 17.7765 3.47386L18.924 2.46642C19.6374 1.84309 20.5527 1.49958 21.5 1.49958C22.4474 1.49958 23.3626 1.84309 24.076 2.46642L25.2235 3.47386C25.7772 3.95611 26.4226 4.32164 27.121 4.54853C27.8194 4.77543 28.5564 4.85903 29.2878 4.79433L30.8083 4.65427C32.7641 4.46611 34.5461 5.77645 34.9781 7.68164L35.313 9.1717C35.4759 9.88784 35.7824 10.5635 36.214 11.1577C36.6456 11.7519 37.1934 12.2523 37.824 12.6285L39.1386 13.409C39.9515 13.8952 40.5607 14.6595 40.8534 15.5603C41.1461 16.4611 41.1025 17.4375 40.7308 18.3087L40.1258 19.7118C39.8366 20.3871 39.6875 21.114 39.6875 21.8486C39.6875 22.5832 39.8366 23.3102 40.1258 23.9854L40.7308 25.3869C41.1031 26.2584 41.1469 27.2353 40.8542 28.1366C40.5614 29.038 39.9519 29.8027 39.1386 30.2891L37.8257 31.0679C37.1945 31.4439 36.6462 31.9443 36.2143 32.5387C35.7824 33.133 35.4757 33.809 35.313 34.5255L34.9781 36.0139C34.5452 37.92 32.754 39.2303 30.8083 39.043L29.2878 38.9029C28.5563 38.8385 27.8193 38.9221 27.1209 39.1488C26.4224 39.3756 25.7768 39.7407 25.2226 40.2225L24.0751 41.23C23.3622 41.8543 22.4468 42.1985 21.4992 42.1985C20.5515 42.1985 19.6361 41.8543 18.9232 41.23ZM40.3578 47.2333C40.0203 47.672 39.4888 47.8661 38.9572 47.748L34.0803 46.7101C33.9131 46.6786 33.7401 46.7039 33.5887 46.7818C33.4374 46.8598 33.3165 46.986 33.245 47.1405L31.1863 51.6798C30.9585 52.1776 30.4944 52.4898 29.9375 52.4983H29.9038C29.3722 52.4983 28.8997 52.2114 28.655 51.7305L24.2262 42.9597C24.5206 42.7884 24.8025 42.5901 25.0657 42.3581L26.2132 41.3506C26.6112 40.9987 27.0773 40.7325 27.5826 40.5685C28.0879 40.4044 28.6215 40.3461 29.1503 40.3972L30.6707 40.5373C31.8261 40.6374 32.9831 40.3651 33.9726 39.7603C34.962 39.1554 35.7319 38.2497 36.1695 37.1758L40.5013 45.7483C40.7544 46.2376 40.6953 46.7945 40.3578 47.2333ZM36.0134 21.8482C36.0134 13.8444 29.5021 7.33233 21.4983 7.33233C13.4937 7.33233 6.98161 13.8444 6.98161 21.8482C6.98161 29.8537 13.4937 36.3649 21.4983 36.3649C29.5021 36.3649 36.0134 29.8537 36.0134 21.8482ZM21.4983 34.8656C14.3205 34.8656 8.48179 29.026 8.48179 21.8482C8.48179 14.6721 14.3205 8.83252 21.4983 8.83252C28.6744 8.83252 34.5132 14.6713 34.5132 21.8482C34.5132 29.026 28.6744 34.8656 21.4983 34.8656ZM28.6255 18.1374L25.2336 17.373L23.4558 14.381C23.2559 14.0396 22.9697 13.7568 22.626 13.5609C22.2823 13.365 21.8931 13.2628 21.4975 13.2647C20.6858 13.2647 19.9534 13.6824 19.5391 14.381L17.7639 17.373L14.3686 18.1374C13.9824 18.2227 13.6253 18.4078 13.333 18.6743C13.0408 18.9409 12.8235 19.2794 12.7031 19.6561C12.5792 20.0316 12.5561 20.433 12.636 20.8202C12.716 21.2074 12.8962 21.5669 13.1587 21.8625L15.4562 24.4765L15.1331 27.9409C15.0944 28.3345 15.1598 28.7314 15.3227 29.0918C15.4856 29.4522 15.7402 29.7635 16.0612 29.9946C16.3805 30.2281 16.7554 30.3739 17.1485 30.4175C17.5417 30.4612 17.9394 30.4012 18.3022 30.2435L21.4983 28.8665L24.6936 30.2435C25.0563 30.4018 25.4543 30.462 25.8476 30.418C26.241 30.374 26.6158 30.2274 26.9346 29.9929C27.2557 29.7623 27.5105 29.4513 27.6734 29.0912C27.8363 28.731 27.9016 28.3343 27.8627 27.9409L27.5404 24.4765L29.8388 21.8625C30.3737 21.2525 30.5433 20.4265 30.2927 19.6545C30.0421 18.8824 29.4186 18.3154 28.6255 18.1374ZM28.7107 20.872L26.1997 23.7289C26.1322 23.8057 26.0812 23.8954 26.0497 23.9927C26.0182 24.0899 26.007 24.1925 26.0166 24.2942L26.3685 28.081C26.3827 28.2151 26.3609 28.3505 26.3053 28.4733C26.2497 28.5962 26.1622 28.7019 26.052 28.7796C25.9436 28.8602 25.8158 28.9107 25.6815 28.926C25.5473 28.9412 25.4114 28.9207 25.2876 28.8665L21.7945 27.3613C21.7009 27.3207 21.5999 27.2998 21.4979 27.2998C21.3959 27.2998 21.2949 27.3207 21.2013 27.3613L17.709 28.8665C17.5853 28.9216 17.4491 28.9426 17.3146 28.9273C17.18 28.912 17.052 28.861 16.9438 28.7796C16.8337 28.7016 16.7464 28.5957 16.6908 28.4727C16.6352 28.3498 16.6133 28.2143 16.6274 28.0801L16.98 24.2934C16.9895 24.1916 16.978 24.089 16.9464 23.9918C16.9148 23.8946 16.8636 23.8048 16.7961 23.7281L14.2851 20.872C14.1951 20.7714 14.1333 20.6488 14.106 20.5166C14.0788 20.3844 14.087 20.2473 14.1299 20.1194C14.1702 19.9904 14.244 19.8744 14.3438 19.7833C14.4435 19.6921 14.5656 19.629 14.6977 19.6005L18.4085 18.7651C18.5083 18.7428 18.6024 18.7003 18.6851 18.6402C18.7678 18.5801 18.8374 18.5038 18.8895 18.4158L20.8301 15.1455C20.8978 15.0288 20.9953 14.9321 21.1125 14.8653C21.2297 14.7984 21.3625 14.7638 21.4975 14.7649C21.6308 14.7649 21.9624 14.802 22.1666 15.1455L24.108 18.4167C24.2135 18.5939 24.3865 18.7204 24.589 18.7651L28.2981 19.6005C28.4302 19.629 28.5523 19.6921 28.6521 19.7833C28.7518 19.8744 28.8256 19.9904 28.866 20.1194C28.9088 20.2473 28.917 20.3844 28.8898 20.5166C28.8625 20.6488 28.8007 20.7714 28.7107 20.872Z" style="fill: rgb(255, 255, 255); transform-origin: 0px 0px; visibility: visible"></path></svg>