<?xml version="1.0" encoding="UTF-8"?>
<svg width="55" height="54" viewBox="0 0 55 54" fill="none" xmlns="http://www.w3.org/2000/svg" class="fill-white group-hover:fill-[#FDC145] transition-all duration-300" style="fill: rgb(255, 255, 255); height: 54px; transition-duration: 0.3s; transition-timing-function: cubic-bezier(0.4, 0, 0.2, 1); visibility: visible; width: 55px"><path d="M23.1339 6.05367H24.8719V11.1244C24.8719 11.2922 24.9386 11.4532 25.0572 11.5719C25.1759 11.6905 25.3369 11.7572 25.5047 11.7572H29.4951C29.6629 11.7572 29.8239 11.6905 29.9426 11.5719C30.0612 11.4532 30.1279 11.2922 30.1279 11.1244V6.05367H31.8659C31.9911 6.05373 32.1135 6.01665 32.2176 5.94713C32.3218 5.8776 32.4029 5.77876 32.4508 5.6631C32.4987 5.54743 32.5112 5.42016 32.4868 5.29738C32.4623 5.1746 32.402 5.06183 32.3134 4.97335L27.9474 0.607259C27.8886 0.548486 27.8188 0.501864 27.742 0.470055C27.6653 0.438247 27.583 0.421875 27.4998 0.421875C27.4167 0.421875 27.3344 0.438247 27.2577 0.470055C27.1809 0.501864 27.1111 0.548486 27.0523 0.607259L22.6863 4.97335C22.5977 5.06185 22.5375 5.17461 22.513 5.29738C22.4886 5.42014 22.5011 5.54739 22.549 5.66303C22.5969 5.77867 22.6781 5.87751 22.7821 5.94704C22.8862 6.01657 23.0087 6.05368 23.1339 6.05367ZM27.5 1.94967L30.3383 4.78804H29.4951C29.3273 4.78804 29.1663 4.85471 29.0476 4.97339C28.929 5.09206 28.8623 5.25302 28.8623 5.42085V10.4916H26.1375V5.42085C26.1375 5.25302 26.0708 5.09206 25.9522 4.97339C25.8335 4.85471 25.6725 4.78804 25.5047 4.78804H24.6616L27.5 1.94967ZM39.6891 17.6326C39.8127 17.7562 39.9746 17.8179 40.1366 17.8179C40.2986 17.8179 40.4605 17.7561 40.5841 17.6326L44.1696 14.047L45.3986 15.2761C45.4871 15.3646 45.5999 15.4249 45.7226 15.4493C45.8454 15.4737 45.9726 15.4612 46.0883 15.4133C46.2039 15.3654 46.3027 15.2843 46.3723 15.1802C46.4418 15.0762 46.4789 14.9538 46.479 14.8287V8.654C46.479 8.48616 46.4123 8.32521 46.2936 8.20653C46.1749 8.08786 46.014 8.02118 45.8461 8.02118H39.6715C39.5463 8.02114 39.4239 8.05823 39.3198 8.12776C39.2157 8.1973 39.1346 8.29615 39.0867 8.4118C39.0388 8.52746 39.0263 8.65473 39.0507 8.7775C39.0752 8.90027 39.1355 9.01303 39.2241 9.1015L40.4531 10.3305L36.8676 13.916C36.8088 13.9748 36.7622 14.0446 36.7304 14.1214C36.6986 14.1981 36.6822 14.2804 36.6822 14.3635C36.6822 14.4467 36.6986 14.529 36.7304 14.6057C36.7622 14.6825 36.8088 14.7523 36.8676 14.8111L39.6893 17.6328L39.6891 17.6326ZM41.7953 10.7779C41.8541 10.7192 41.9007 10.6494 41.9325 10.5726C41.9643 10.4958 41.9807 10.4135 41.9807 10.3304C41.9807 10.2473 41.9643 10.165 41.9325 10.0882C41.9007 10.0114 41.8541 9.94168 41.7953 9.88292L41.1991 9.2867H45.2132V13.3008L44.617 12.7046C44.4983 12.586 44.3374 12.5193 44.1696 12.5193C44.0017 12.5193 43.8408 12.586 43.7221 12.7046L40.1366 16.2901L38.2098 14.3633L41.7953 10.7779ZM53.8927 26.5526L49.5266 22.1865C49.4381 22.0979 49.3253 22.0376 49.2025 22.0131C49.0798 21.9887 48.9525 22.0012 48.8368 22.0491C48.7212 22.097 48.6223 22.1782 48.5528 22.2823C48.4833 22.3864 48.4462 22.5088 48.4463 22.634V24.372H43.3755C43.2077 24.372 43.0467 24.4387 42.9281 24.5573C42.8094 24.676 42.7427 24.837 42.7427 25.0048V28.9952C42.7427 29.1631 42.8094 29.324 42.9281 29.4427C43.0467 29.5614 43.2077 29.628 43.3755 29.628H48.4463V31.3661C48.4462 31.4912 48.4833 31.6136 48.5528 31.7177C48.6223 31.8218 48.7212 31.9029 48.8368 31.9508C48.9524 31.9987 49.0797 32.0113 49.2025 31.9868C49.3252 31.9624 49.438 31.9021 49.5265 31.8136L53.8926 27.4475C53.9513 27.3887 53.998 27.3189 54.0298 27.2422C54.0616 27.1654 54.0779 27.0831 54.0779 27C54.0779 26.9169 54.0616 26.8346 54.0298 26.7578C53.998 26.681 53.9513 26.6112 53.8926 26.5525L53.8927 26.5526ZM49.7119 29.8384V28.9952C49.7119 28.8274 49.6452 28.6664 49.5265 28.5478C49.4079 28.4291 49.2469 28.3624 49.0791 28.3624H44.0083V25.6376H49.0791C49.2469 25.6376 49.4079 25.571 49.5265 25.4523C49.6452 25.3336 49.7119 25.1726 49.7119 25.0048V24.1617L52.5503 27.0001L49.7119 29.8384ZM46.0882 38.5869C45.9725 38.539 45.8453 38.5264 45.7225 38.5509C45.5998 38.5753 45.487 38.6356 45.3985 38.7241L44.1695 39.953L40.584 36.3675C40.5252 36.3087 40.4555 36.2621 40.3787 36.2303C40.3019 36.1985 40.2196 36.1821 40.1365 36.1821C40.0534 36.1821 39.9711 36.1985 39.8943 36.2303C39.8175 36.2621 39.7477 36.3087 39.689 36.3675L36.8673 39.1892C36.7486 39.3079 36.6819 39.4688 36.6819 39.6367C36.6819 39.8045 36.7486 39.9654 36.8673 40.0841L40.4528 43.6696L39.2238 44.8986C39.1353 44.9872 39.0752 45.0999 39.0508 45.2226C39.0264 45.3454 39.039 45.4726 39.0868 45.5881C39.1347 45.7037 39.2158 45.8026 39.3198 45.8721C39.4238 45.9417 39.546 45.9789 39.6712 45.979H45.8458C46.0137 45.979 46.1746 45.9123 46.2933 45.7936C46.412 45.6749 46.4786 45.514 46.4786 45.3462V39.1716C46.4786 39.0464 46.4415 38.9241 46.372 38.82C46.3025 38.716 46.2036 38.6349 46.088 38.587L46.0882 38.5869ZM45.2132 44.7133H41.1991L41.7953 44.1171C41.8541 44.0584 41.9007 43.9886 41.9325 43.9118C41.9643 43.835 41.9807 43.7527 41.9807 43.6696C41.9807 43.5865 41.9643 43.5042 41.9325 43.4274C41.9007 43.3506 41.8541 43.2809 41.7953 43.2221L38.2098 39.6366L40.1366 37.7098L43.7221 41.2953C43.8408 41.414 44.0017 41.4806 44.1696 41.4806C44.3374 41.4806 44.4983 41.414 44.617 41.2953L45.2132 40.6991V44.7132V44.7133ZM31.866 47.9464H30.128V42.8757C30.128 42.7078 30.0614 42.5469 29.9427 42.4282C29.824 42.3095 29.663 42.2428 29.4952 42.2428H25.5048C25.337 42.2428 25.176 42.3095 25.0573 42.4282C24.9387 42.5469 24.872 42.7078 24.872 42.8757V47.9464H23.134C23.0088 47.9463 22.8864 47.9834 22.7823 48.0529C22.6782 48.1224 22.597 48.2213 22.5491 48.3369C22.5012 48.4526 22.4887 48.5799 22.5131 48.7027C22.5376 48.8254 22.5979 48.9382 22.6865 49.0267L27.0526 53.3928C27.1113 53.4516 27.1811 53.4982 27.2579 53.53C27.3347 53.5618 27.4169 53.5782 27.5001 53.5782C27.5832 53.5782 27.6655 53.5618 27.7423 53.53C27.819 53.4982 27.8888 53.4516 27.9476 53.3928L32.3137 49.0267C32.4022 48.9382 32.4625 48.8254 32.4869 48.7027C32.5113 48.5799 32.4988 48.4527 32.4509 48.337C32.403 48.2214 32.3218 48.1225 32.2178 48.053C32.1137 47.9835 31.9913 47.9464 31.8662 47.9464H31.866ZM27.5 52.0504L24.6616 49.212H25.5048C25.6726 49.212 25.8336 49.1453 25.9523 49.0267C26.0709 48.908 26.1376 48.747 26.1376 48.5792V43.5085H28.8624V48.5792C28.8624 48.747 28.9291 48.908 29.0477 49.0267C29.1664 49.1453 29.3274 49.212 29.4952 49.212H30.3383L27.5 52.0504ZM15.3108 36.3675C15.1922 36.2488 15.0312 36.1822 14.8634 36.1822C14.6955 36.1822 14.5346 36.2488 14.4159 36.3675L10.8304 39.953L9.60138 38.724C9.51287 38.6355 9.40012 38.5753 9.27738 38.5509C9.15464 38.5265 9.02743 38.539 8.91181 38.5869C8.7962 38.6348 8.69737 38.7159 8.62782 38.8199C8.55827 38.9239 8.52112 39.0462 8.52106 39.1714V45.3459C8.52106 45.5138 8.58773 45.6747 8.70641 45.7934C8.82508 45.9121 8.98604 45.9788 9.15388 45.9788H15.3285C15.4537 45.9788 15.5761 45.9417 15.6802 45.8722C15.7843 45.8026 15.8654 45.7038 15.9133 45.5881C15.9612 45.4725 15.9737 45.3452 15.9493 45.2224C15.9248 45.0997 15.8645 44.9869 15.7759 44.8984L14.5469 43.6694L18.1324 40.0839C18.1912 40.0251 18.2378 39.9554 18.2696 39.8786C18.3014 39.8018 18.3178 39.7195 18.3178 39.6364C18.3178 39.5533 18.3014 39.471 18.2696 39.3942C18.2378 39.3174 18.1912 39.2476 18.1324 39.1889L15.3107 36.3672L15.3108 36.3675ZM13.2046 43.2221C13.1458 43.2809 13.0992 43.3506 13.0674 43.4274C13.0356 43.5042 13.0192 43.5865 13.0192 43.6696C13.0192 43.7527 13.0356 43.835 13.0674 43.9118C13.0992 43.9886 13.1458 44.0584 13.2046 44.1171L13.8008 44.7133H9.78669V40.6993L10.3829 41.2955C10.5016 41.4142 10.6625 41.4809 10.8304 41.4809C10.9982 41.4809 11.1591 41.4142 11.2778 41.2955L14.8633 37.71L16.7901 39.6368L13.2046 43.2223V43.2221ZM12.2572 28.9952V25.0048C12.2572 24.837 12.1905 24.676 12.0718 24.5573C11.9532 24.4387 11.7922 24.372 11.6244 24.372H6.55365V22.634C6.55371 22.5088 6.51664 22.3864 6.44711 22.2823C6.37759 22.1782 6.27874 22.097 6.16308 22.0491C6.04742 22.0012 5.92014 21.9887 5.79736 22.0131C5.67458 22.0376 5.56181 22.0979 5.47333 22.1865L1.10714 26.5526C1.04836 26.6113 1.00174 26.6811 0.969933 26.7579C0.938125 26.8347 0.921753 26.917 0.921753 27.0001C0.921753 27.0832 0.938125 27.1655 0.969933 27.2423C1.00174 27.319 1.04836 27.3888 1.10714 27.4476L5.47323 31.8137C5.56171 31.9022 5.67447 31.9625 5.79723 31.9869C5.92 32.0114 6.04725 31.9988 6.16289 31.9509C6.27853 31.903 6.37736 31.8219 6.44688 31.7178C6.5164 31.6137 6.55348 31.4913 6.55344 31.3662V29.6281H11.6242C11.792 29.6281 11.953 29.5615 12.0716 29.4428C12.1903 29.3241 12.257 29.1632 12.257 28.9953L12.2572 28.9952ZM10.9916 28.3624H5.92084C5.753 28.3624 5.59205 28.4291 5.47337 28.5478C5.3547 28.6664 5.28802 28.8274 5.28802 28.9952V29.8383L2.44965 27L5.28802 24.1616V25.0048C5.28802 25.1726 5.3547 25.3336 5.47337 25.4523C5.59205 25.571 5.753 25.6376 5.92084 25.6376H10.9916V28.3624ZM8.91183 15.4132C9.02747 15.461 9.1547 15.4735 9.27745 15.4491C9.4002 15.4247 9.51296 15.3644 9.60148 15.276L10.8305 14.0469L14.416 17.6324C14.4748 17.6912 14.5446 17.7378 14.6213 17.7697C14.6981 17.8015 14.7804 17.8178 14.8635 17.8178C14.9466 17.8178 15.0289 17.8015 15.1057 17.7697C15.1825 17.7378 15.2523 17.6912 15.311 17.6324L18.1326 14.8107C18.2513 14.6921 18.318 14.5311 18.318 14.3633C18.318 14.1955 18.2513 14.0345 18.1326 13.9158L14.5471 10.3303L15.7762 9.10129C15.8646 9.01276 15.9247 8.90001 15.9491 8.77729C15.9735 8.65457 15.9609 8.52738 15.9131 8.41179C15.8652 8.29619 15.7841 8.19738 15.6801 8.12782C15.5761 8.05826 15.4539 8.02108 15.3288 8.02097H9.15409C8.98625 8.02097 8.8253 8.08764 8.70662 8.20632C8.58794 8.325 8.52127 8.48595 8.52127 8.65379V14.8285C8.52127 14.9536 8.55838 15.076 8.62792 15.18C8.69745 15.2841 8.79629 15.3652 8.91193 15.4131L8.91183 15.4132ZM9.78679 9.2867H13.8009L13.2047 9.88292C13.1459 9.94168 13.0993 10.0114 13.0675 10.0882C13.0357 10.165 13.0193 10.2473 13.0193 10.3304C13.0193 10.4135 13.0357 10.4958 13.0675 10.5726C13.0993 10.6494 13.1459 10.7192 13.2047 10.7779L16.7902 14.3634L14.8635 16.2903L11.278 12.7047C11.1544 12.5812 10.9925 12.5194 10.8305 12.5194C10.6685 12.5194 10.5066 12.5812 10.383 12.7047L9.78679 13.3009V9.2867ZM27.5001 13.0536C19.81 13.0536 13.5537 19.3099 13.5537 27C13.5537 34.69 19.81 40.9463 27.5001 40.9463C35.1901 40.9463 41.4464 34.69 41.4464 27C41.4464 19.3099 35.1901 13.0536 27.5001 13.0536ZM27.5001 39.6808C20.5079 39.6808 14.8193 33.9922 14.8193 27.0001C14.8193 20.0079 20.5079 14.3194 27.5001 14.3194C34.4922 14.3194 40.1808 20.0079 40.1808 27.0001C40.1808 33.9922 34.4922 39.6808 27.5001 39.6808ZM19.7915 19.2915C15.541 23.542 15.541 30.4581 19.7915 34.7086C21.9168 36.8338 24.7084 37.8965 27.5001 37.8965C30.2917 37.8965 33.0834 36.8338 35.2087 34.7086C39.4592 30.4581 39.4592 23.542 35.2087 19.2915C30.9581 15.041 24.0421 15.041 19.7915 19.2915ZM34.3137 33.8137C30.5567 37.5708 24.4434 37.5708 20.6864 33.8137C16.9292 30.0566 16.9292 23.9435 20.6864 20.1864C22.5649 18.3078 25.0325 17.3686 27.5001 17.3686C29.9676 17.3686 32.4352 18.3078 34.3138 20.1864C38.0709 23.9435 38.0709 30.0566 34.3138 33.8137H34.3137ZM30.8857 29.0719C30.8857 30.5411 29.6982 31.7673 28.1329 32.0319V32.9276C28.1329 33.0955 28.0662 33.2564 27.9475 33.3751C27.8289 33.4938 27.6679 33.5604 27.5001 33.5604C27.3322 33.5604 27.1713 33.4938 27.0526 33.3751C26.9339 33.2564 26.8672 33.0955 26.8672 32.9276V32.0319C25.3019 31.7673 24.1144 30.5411 24.1144 29.0719C24.1144 28.9041 24.1811 28.7431 24.2998 28.6244C24.4184 28.5058 24.5794 28.4391 24.7472 28.4391C24.9151 28.4391 25.076 28.5058 25.1947 28.6244C25.3134 28.7431 25.38 28.9041 25.38 29.0719C25.38 30.0358 26.331 30.8198 27.5001 30.8198C28.6691 30.8198 29.6201 30.0357 29.6201 29.0719C29.6201 27.9211 28.9928 27.6681 27.4524 27.3281C26.1945 27.0504 24.4716 26.6701 24.4716 24.6193C24.4716 23.3219 25.5002 22.2352 26.8672 21.9746V21.0725C26.8672 20.9047 26.9339 20.7437 27.0526 20.6251C27.1713 20.5064 27.3322 20.4397 27.5001 20.4397C27.6679 20.4397 27.8289 20.5064 27.9475 20.6251C28.0662 20.7437 28.1329 20.9047 28.1329 21.0725V21.9746C29.5 22.2352 30.5285 23.3219 30.5285 24.6193C30.5285 24.7872 30.4618 24.9481 30.3431 25.0668C30.2245 25.1855 30.0635 25.2521 29.8957 25.2521C29.7278 25.2521 29.5669 25.1855 29.4482 25.0668C29.3295 24.9481 29.2629 24.7872 29.2629 24.6193C29.2629 23.8259 28.4721 23.1803 27.5001 23.1803C26.5281 23.1803 25.7373 23.8259 25.7373 24.6193C25.7373 25.5642 26.2824 25.7738 27.7252 26.0922C29.059 26.3867 30.8857 26.79 30.8857 29.0718V29.0719Z" style="fill: rgb(255, 255, 255); transform-origin: 0px 0px; visibility: visible"></path><defs style="visibility: visible"><linearGradient id="paint0_linear_3060_137" x1="-82.0001" y1="6.5" x2="46.2929" y2="4.01555" gradientUnits="userSpaceOnUse" style="fill: rgb(255, 255, 255); transform-origin: 0px 0px; visibility: visible"><stop stop-color="white" style="stop-color: rgb(255, 255, 255)" /><stop offset="1" stop-color="#FDC145" stop-opacity="0.5" style="stop-color: rgb(253, 193, 69); stop-opacity: 0.5" /></linearGradient></defs></svg>