<?xml version="1.0" encoding="UTF-8"?>
<svg width="39" height="44" viewBox="0 0 39 44" fill="none" xmlns="http://www.w3.org/2000/svg" class="fill-white group-hover:fill-[#FDC145] transition-all duration-300" style="fill: rgb(255, 255, 255); height: 44px; transition-duration: 0.3s; transition-timing-function: cubic-bezier(0.4, 0, 0.2, 1); visibility: visible; width: 39px"><path d="M34.7465 9.62184C34.5563 9.62184 34.3739 9.6974 34.2394 9.83189C34.1049 9.96639 34.0293 10.1488 34.0293 10.339V38.9928C34.0293 40.9587 32.4262 42.5618 30.4602 42.5618H5.49367C3.52773 42.5618 1.92461 40.9587 1.92461 38.9928V6.95559C1.92461 4.98965 3.52773 3.38652 5.49367 3.38652H28.8909C28.985 3.38652 29.0783 3.36797 29.1653 3.33193C29.2523 3.29589 29.3314 3.24306 29.398 3.17646C29.4646 3.10987 29.5174 3.03081 29.5535 2.94379C29.5895 2.85678 29.608 2.76352 29.608 2.66934C29.608 2.57515 29.5895 2.48189 29.5535 2.39488C29.5174 2.30787 29.4646 2.22881 29.398 2.16221C29.3314 2.09561 29.2523 2.04278 29.1653 2.00674C29.0783 1.9707 28.985 1.95215 28.8909 1.95215H5.49367C4.16055 1.95215 2.90336 2.47527 1.95836 3.42027C1.01336 4.36527 0.490234 5.62246 0.490234 6.95559V38.9843C0.490234 40.3175 1.01336 41.5746 1.95836 42.5196C2.90336 43.4646 4.16055 43.9878 5.49367 43.9878H30.4687C31.8018 43.9878 33.059 43.4646 34.004 42.5196C34.949 41.5746 35.4721 40.3175 35.4721 38.9843V10.339C35.469 10.1483 35.3913 9.96642 35.2557 9.83234C35.12 9.69827 34.9372 9.62269 34.7465 9.62184Z" style="fill: rgb(255, 255, 255); transform-origin: 0px 0px; visibility: visible"></path><path d="M37.5561 0.965156C36.9401 0.349219 36.1301 0.0117188 35.2611 0.0117188C34.392 0.0117188 33.582 0.349219 32.9661 0.965156L23.9126 10.0186C23.8114 10.1198 23.7355 10.2548 23.7101 10.3983L23.0942 13.7986C23.0098 14.2458 23.1533 14.7098 23.4823 15.0305C23.7439 15.292 24.0983 15.4355 24.4695 15.4355C24.5539 15.4355 24.6383 15.427 24.7142 15.4102L28.1145 14.7942C28.2579 14.7689 28.3929 14.7014 28.4942 14.5917L37.5561 5.54672C38.172 4.93078 38.5011 4.12078 38.5011 3.25172C38.5057 2.82658 38.4244 2.40489 38.262 2.01196C38.0996 1.61903 37.8595 1.26297 37.5561 0.965156ZM36.5436 4.53422L27.642 13.4358L24.5201 14.0011L25.0854 10.8792L33.987 1.97766C34.3245 1.64016 34.7801 1.44609 35.2695 1.44609C35.7589 1.44609 36.2061 1.63172 36.5436 1.97766C36.8895 2.31516 37.0751 2.77078 37.0751 3.26016C37.0751 3.74109 36.8895 4.18828 36.5436 4.53422ZM19.3986 14.1698H5.97451C5.88033 14.1698 5.78707 14.1884 5.70006 14.2244C5.61304 14.2605 5.53398 14.3133 5.46738 14.3799C5.40079 14.4465 5.34796 14.5256 5.31192 14.6126C5.27587 14.6996 5.25732 14.7928 5.25732 14.887C5.25732 14.9812 5.27587 15.0745 5.31192 15.1615C5.34796 15.2485 5.40079 15.3276 5.46738 15.3942C5.53398 15.4608 5.61304 15.5136 5.70006 15.5496C5.78707 15.5857 5.88033 15.6042 5.97451 15.6042H19.3986C19.4928 15.6042 19.586 15.5857 19.673 15.5496C19.76 15.5136 19.8391 15.4608 19.9057 15.3942C19.9723 15.3276 20.0251 15.2485 20.0612 15.1615C20.0972 15.0745 20.1158 14.9812 20.1158 14.887C20.1158 14.7928 20.0972 14.6996 20.0612 14.6126C20.0251 14.5256 19.9723 14.4465 19.9057 14.3799C19.8391 14.3133 19.76 14.2605 19.673 14.2244C19.586 14.1884 19.4928 14.1698 19.3986 14.1698ZM29.3886 18.7008H5.97451C5.7843 18.7008 5.60188 18.7763 5.46738 18.9108C5.33289 19.0453 5.25732 19.2278 5.25732 19.418C5.25732 19.6082 5.33289 19.7906 5.46738 19.9251C5.60188 20.0596 5.7843 20.1352 5.97451 20.1352H29.3886C29.5788 20.1352 29.7612 20.0596 29.8957 19.9251C30.0302 19.7906 30.1058 19.6082 30.1058 19.418C30.1058 19.2278 30.0302 19.0453 29.8957 18.9108C29.7612 18.7763 29.5788 18.7008 29.3886 18.7008ZM29.3886 36.8161H5.97451C5.7843 36.8161 5.60188 36.8917 5.46738 37.0262C5.33289 37.1607 5.25732 37.3431 5.25732 37.5333C5.25732 37.7235 5.33289 37.9059 5.46738 38.0404C5.60188 38.1749 5.7843 38.2505 5.97451 38.2505H29.3886C29.5788 38.2505 29.7612 38.1749 29.8957 38.0404C30.0302 37.9059 30.1058 37.7235 30.1058 37.5333C30.1058 37.3431 30.0302 37.1607 29.8957 37.0262C29.7612 36.8917 29.5788 36.8161 29.3886 36.8161ZM29.3886 23.2317H5.97451C5.7843 23.2317 5.60188 23.3073 5.46738 23.4418C5.33289 23.5763 5.25732 23.7587 5.25732 23.9489C5.25732 24.1391 5.33289 24.3215 5.46738 24.456C5.60188 24.5905 5.7843 24.6661 5.97451 24.6661H29.3886C29.5788 24.6661 29.7612 24.5905 29.8957 24.456C30.0302 24.3215 30.1058 24.1391 30.1058 23.9489C30.1058 23.7587 30.0302 23.5763 29.8957 23.4418C29.7612 23.3073 29.5788 23.2317 29.3886 23.2317ZM29.3886 27.7542H5.97451C5.7843 27.7542 5.60188 27.8298 5.46738 27.9643C5.33289 28.0988 5.25732 28.2812 5.25732 28.4714C5.25732 28.6616 5.33289 28.844 5.46738 28.9785C5.60188 29.113 5.7843 29.1886 5.97451 29.1886H29.3886C29.5788 29.1886 29.7612 29.113 29.8957 28.9785C30.0302 28.844 30.1058 28.6616 30.1058 28.4714C30.1058 28.2812 30.0302 28.0988 29.8957 27.9643C29.7612 27.8298 29.5788 27.7542 29.3886 27.7542ZM29.3886 32.2852H5.97451C5.7843 32.2852 5.60188 32.3607 5.46738 32.4952C5.33289 32.6297 5.25732 32.8121 5.25732 33.0023C5.25732 33.1926 5.33289 33.375 5.46738 33.5095C5.60188 33.644 5.7843 33.7195 5.97451 33.7195H29.3886C29.5788 33.7195 29.7612 33.644 29.8957 33.5095C30.0302 33.375 30.1058 33.1926 30.1058 33.0023C30.1058 32.8121 30.0302 32.6297 29.8957 32.4952C29.7612 32.3607 29.5788 32.2852 29.3886 32.2852Z" style="fill: rgb(255, 255, 255); transform-origin: 0px 0px; visibility: visible"></path></svg>