<?xml version="1.0" encoding="UTF-8"?>
<svg width="59" height="80" viewBox="0 0 59 80" fill="none" xmlns="http://www.w3.org/2000/svg" class="fill-white group-hover:fill-yellow-400 transition-all duration-300" style="fill: rgb(255, 255, 255); height: 80px; transition-duration: 0.3s; transition-timing-function: cubic-bezier(0.4, 0, 0.2, 1); visibility: visible; width: 59px"><path d="M36.3278 59.9984H21.3275C20.6615 59.9984 20.0779 60.2499 19.5779 60.749C19.0775 61.2494 18.8277 61.8322 18.8277 62.499V77.5C18.8277 78.1668 19.0784 78.7504 19.5779 79.25C20.0779 79.7489 20.6609 80 21.3275 80H36.3278C36.9938 80 37.5789 79.7496 38.0769 79.25C38.5782 78.7504 38.8285 78.1668 38.8285 77.5V62.499C38.8285 61.8322 38.5789 61.2494 38.0769 60.749C37.5789 60.2486 36.9938 59.9984 36.3278 59.9984ZM56.0171 15.0943C54.3082 11.9467 52.1005 9.29176 49.3915 7.12452C46.6842 4.95816 43.6404 3.22809 40.2661 1.93694C36.8911 0.646231 33.5371 0 30.2031 0C17.537 0 7.87045 5.54178 1.20323 16.6256C0.870267 17.1669 0.755338 17.7501 0.859322 18.3753C0.963962 18.9997 1.28686 19.5207 1.82845 19.9373L12.0788 27.7505C12.6204 28.0833 13.1414 28.2498 13.6417 28.2498C14.3919 28.2498 15.0372 27.916 15.5795 27.2494C18.579 23.4999 20.8086 21.1041 22.2668 20.0618C24.0588 18.8539 26.3082 18.2501 29.0166 18.2501C31.5581 18.2501 33.7972 18.9169 35.7354 20.2492C37.6728 21.5829 38.6406 23.1247 38.6406 24.8746C38.6406 26.8322 38.1207 28.4162 37.0787 29.6246C36.0373 30.8326 34.2867 31.9987 31.8278 33.1242C28.5787 34.5823 25.5982 36.8431 22.8912 39.9056C20.1821 42.9685 18.8286 46.229 18.8286 49.6871V52.4995C18.8286 53.292 19.0462 54.0728 19.4844 54.8436C19.9223 55.6151 20.4531 56.0001 21.0786 56.0001H36.0787C36.7455 56.0001 37.3283 55.6779 37.8287 55.0299C38.3276 54.3859 38.5787 53.7085 38.5787 53.0012C38.5787 51.9599 39.1516 50.5626 40.2965 48.8134C41.4425 47.0634 42.8692 45.7079 44.5789 44.7493C46.203 43.8329 47.4727 43.0943 48.3904 42.5311C49.3089 41.9693 50.5059 41.0611 51.9856 39.812C53.4646 38.5615 54.6106 37.3218 55.4221 36.0931C56.2349 34.8641 56.9645 33.27 57.6103 31.3111C58.2574 29.3529 58.5797 27.2485 58.5797 24.9988C58.5792 21.5404 57.7244 18.2385 56.0171 15.0943Z" fill-opacity="0.8" style="fill: rgb(255, 255, 255); fill-opacity: 0.8; transform-origin: 0px 0px; visibility: visible"></path></svg>