<?xml version="1.0" encoding="UTF-8"?>
<svg width="65" height="83" viewBox="0 0 65 83" fill="none" xmlns="http://www.w3.org/2000/svg" class="fill-white group-hover:fill-yellow-400 transition-all duration-300" style="fill: rgb(255, 255, 255); height: 83px; transition-duration: 0.3s; transition-timing-function: cubic-bezier(0.4, 0, 0.2, 1); visibility: visible; width: 65px"><path fill-rule="evenodd" clip-rule="evenodd" d="M32.3658 9.5332C-0.789724 10.0221 -12.2342 52.4888 15.9658 69.311C25.4325 75.1332 39.2547 75.1554 48.7214 69.3332C76.9436 52.5332 65.5214 10.0221 32.3658 9.5332ZM48.9658 58.5777C48.6325 58.911 48.0769 58.911 47.7436 58.5777L33.4992 44.3332C33.1436 44.4665 32.7436 44.5332 32.3436 44.5332C30.3658 44.5332 28.7436 42.911 28.7436 40.9332C28.7436 39.2443 29.9214 37.8221 31.4769 37.4221V25.4443C31.4769 24.9776 31.8547 24.5776 32.3436 24.5776C32.8103 24.5776 33.2103 24.9554 33.2103 25.4443V37.4221C34.7881 37.7999 35.9436 39.2221 35.9436 40.9332C35.9436 41.8888 35.5658 42.7554 34.9658 43.3999L48.9436 57.3777C49.2992 57.6888 49.2992 58.2443 48.9658 58.5777Z" fill-opacity="0.8" style="fill: rgb(255, 255, 255); fill-opacity: 0.8; fill-rule: evenodd; transform-origin: 0px 0px; visibility: visible"></path><path fill-rule="evenodd" clip-rule="evenodd" d="M61.4547 15.3111C61.7658 14.9555 61.7436 14.4222 61.3881 14.0888C61.0325 13.7777 60.4992 13.8 60.1658 14.1555L56.7436 17.9777C57.1436 18.4 57.5436 18.8 57.9214 19.2444L61.4547 15.3111ZM55.8769 81.7333C56.0325 81.9777 56.3214 82.1111 56.588 82.1111C56.7436 82.1111 56.9214 82.0666 57.0769 81.9555C57.4769 81.6888 57.5881 81.1555 57.3214 80.7555L50.3881 70.3555C49.8992 70.6666 49.4103 70.9555 48.8992 71.2222L55.8769 81.7333ZM36.7436 0.199951H27.6992C27.2325 0.199951 26.8325 0.577728 26.8325 1.06662C26.8325 1.55551 27.2103 1.93328 27.6992 1.93328H31.4992V7.8444C32.0769 7.82217 32.6547 7.82217 33.2325 7.8444V1.93328H36.7436C37.2103 1.93328 37.6103 1.55551 37.6103 1.06662C37.6103 0.599951 37.2325 0.199951 36.7436 0.199951ZM7.3436 80.7777C7.07694 81.1777 7.18805 81.7111 7.58805 81.9777C7.7436 82.0666 7.89916 82.1333 8.07694 82.1333C8.36583 82.1333 8.63249 82 8.78805 81.7555L15.8103 71.2444C15.2992 70.9777 14.8103 70.6666 14.3214 70.3777L7.3436 80.7777ZM4.49916 14.1555C4.18805 13.8 3.63249 13.7777 3.27694 14.0888C2.92138 14.4 2.89916 14.9555 3.21027 15.3111L6.76583 19.2666C7.1436 18.8444 7.5436 18.4222 7.9436 18L4.49916 14.1555ZM34.2325 40.9111C34.2325 39.8666 33.388 39.0222 32.3436 39.0222C31.2992 39.0222 30.4547 39.8666 30.4547 40.9111C30.4547 41.9555 31.2992 42.8 32.3436 42.8C33.388 42.8 34.2325 41.9555 34.2325 40.9111Z" fill-opacity="0.8" style="fill: rgb(255, 255, 255); fill-opacity: 0.8; fill-rule: evenodd; transform-origin: 0px 0px; visibility: visible"></path></svg>