<?xml version="1.0" encoding="UTF-8"?>
<svg width="55" height="54" viewBox="0 0 55 54" fill="none" xmlns="http://www.w3.org/2000/svg" class="fill-white group-hover:fill-[#FDC145] transition-all duration-300" style="fill: rgb(255, 255, 255); height: 54px; transition-duration: 0.3s; transition-timing-function: cubic-bezier(0.4, 0, 0.2, 1); visibility: visible; width: 55px"><path d="M8.87919 39.1409V46.2992C8.87934 46.4842 8.94028 46.6641 9.05264 46.811C9.165 46.958 9.32255 47.064 9.50104 47.1126C9.5733 47.1327 9.64794 47.1429 9.72294 47.143C9.86984 47.1428 10.0141 47.1042 10.1415 47.0311C10.269 46.958 10.3751 46.8529 10.4494 46.7262L13.4025 41.7101C14.0703 40.5771 15.0325 39.6461 16.1869 39.016L17.8027 38.1495C18.7551 39.5572 19.8324 40.8763 21.0216 42.0906L19.124 47.7758C19.0737 47.927 19.0672 48.0893 19.1054 48.244C19.1435 48.3986 19.2246 48.5394 19.3393 48.6499C19.4541 48.7604 19.5977 48.8362 19.7538 48.8684C19.9098 48.9007 20.0717 48.8881 20.2209 48.8322L23.4778 47.6062L25.8622 51.8418L25.8909 51.895C25.9652 52.0225 26.0716 52.1282 26.1995 52.2017C26.3274 52.2752 26.4724 52.3139 26.6199 52.3139C26.7674 52.3139 26.9124 52.2752 27.0403 52.2017C27.1682 52.1282 27.2746 52.0225 27.3489 51.895C27.3624 51.8723 27.3748 51.8489 27.386 51.825L29.7603 47.6062L33.018 48.8322C33.1672 48.8881 33.3292 48.9007 33.4852 48.8684C33.6412 48.8362 33.7849 48.7604 33.8996 48.6499C34.0143 48.5394 34.0955 48.3986 34.1336 48.244C34.1717 48.0893 34.1652 47.927 34.1149 47.7758L32.2165 42.0864C33.4041 40.8719 34.4816 39.5544 35.4362 38.1495L37.0394 39.0143C38.2024 39.6419 39.1717 40.5755 39.8423 41.7143L42.7954 46.7304C42.8698 46.8572 42.9761 46.9624 43.1036 47.0355C43.2312 47.1086 43.3757 47.1471 43.5227 47.1472C43.5974 47.1471 43.6718 47.1368 43.7438 47.1168C43.9224 47.0683 44.0802 46.9624 44.1927 46.8155C44.3052 46.6685 44.3663 46.4886 44.3665 46.3035V39.1409C44.3714 37.6179 43.9823 36.1196 43.237 34.7915C42.4917 33.4634 41.4156 32.3507 40.1131 31.5615L38.7252 30.7177C39.4051 27.6799 39.4275 24.5318 38.791 21.4846C40.0486 21.4262 41.2726 21.0602 42.3559 20.4188C43.4392 19.7774 44.3487 18.88 45.0045 17.8054C45.6604 16.7308 46.0427 15.5117 46.1178 14.255C46.193 12.9983 45.9588 11.7424 45.4358 10.5972C44.9127 9.45208 44.1168 8.45271 43.1177 7.68668C42.1187 6.92066 40.9469 6.41137 39.7053 6.20346C38.4636 5.99555 37.1899 6.09536 35.9958 6.49414C34.8017 6.89293 33.7236 7.57851 32.856 8.4908C31.1891 6.11511 29.2906 3.91058 27.1886 1.90955C27.0334 1.76915 26.8317 1.69141 26.6224 1.69141C26.4132 1.69141 26.2114 1.76915 26.0563 1.90955C25.4344 2.46896 11.0746 15.7023 14.5129 30.7126L13.114 31.5648C11.8166 32.3573 10.7453 33.4708 10.0036 34.7978C9.26179 36.1248 8.87455 37.6206 8.87919 39.1409ZM29.6793 45.7719C29.4907 45.7008 29.2829 45.6996 29.0934 45.7685C28.904 45.8373 28.7455 45.9717 28.6466 46.1474L26.6216 49.746L24.5966 46.1474C24.4976 45.9715 24.339 45.837 24.1493 45.7681C23.9597 45.6992 23.7517 45.7006 23.563 45.7719L21.2848 46.6291L22.5901 42.7192H30.6505L31.9549 46.6291L29.6793 45.7719ZM42.679 39.1409V43.2001L41.2994 40.8545C40.4711 39.4516 39.2748 38.302 37.8401 37.5301L36.3289 36.7151C37.1199 35.3506 37.765 33.9065 38.2535 32.4069L39.2306 33.0017C40.2858 33.6409 41.1579 34.5421 41.7621 35.6178C42.3663 36.6935 42.6822 37.9071 42.679 39.1409ZM38.418 7.78458C39.6077 7.78458 40.7707 8.13736 41.7598 8.79831C42.749 9.45926 43.52 10.3987 43.9753 11.4978C44.4305 12.5969 44.5496 13.8063 44.3176 14.9732C44.0855 16.14 43.5126 17.2118 42.6714 18.053C41.8301 18.8942 40.7583 19.4671 39.5915 19.6992C38.4247 19.9313 37.2153 19.8122 36.1162 19.3569C35.017 18.9016 34.0776 18.1307 33.4167 17.1415C32.7557 16.1523 32.4029 14.9893 32.4029 13.7997C32.4047 12.2049 33.039 10.676 34.1667 9.54834C35.2944 8.42067 36.8233 7.78637 38.418 7.78458ZM26.6233 3.70336C28.5228 5.61439 30.2497 7.68966 31.7836 9.90493C31.085 11.084 30.7161 12.4292 30.7154 13.7997C30.7154 14.0174 30.7306 14.2317 30.7483 14.4451H18.7536C20.8266 10.4922 23.4792 6.87159 26.6233 3.70336ZM17.9529 16.1326H31.0791C31.5056 17.464 32.2856 18.6545 33.3357 19.5773C34.3858 20.5001 35.6668 21.1205 37.0419 21.3723C37.7749 24.5119 37.7443 27.7815 36.9524 30.9067L36.9474 30.9227C36.9375 30.9503 36.9293 30.9785 36.9229 31.0071C36.3813 32.9821 35.5499 34.8658 34.4558 36.597C33.4336 38.1997 32.2427 39.6884 30.9036 41.0376H22.3328C20.9938 39.6914 19.8055 38.2032 18.789 36.5995C18.7704 36.57 18.7498 36.5418 18.7274 36.5151C17.6379 34.779 16.8132 32.8902 16.2806 30.9109C14.9112 25.6501 16.0114 20.5235 17.9529 16.1326ZM14.9795 32.4001C15.4682 33.9016 16.1139 35.3473 16.9058 36.7134L15.387 37.5293C13.9618 38.306 12.7737 39.4542 11.9488 40.852L10.5667 43.2001V39.1417C10.5629 37.9096 10.8768 36.6973 11.4782 35.6219C12.0796 34.5465 12.9481 33.6444 13.9999 33.0026L14.9795 32.4001Z" style="fill: rgb(255, 255, 255); transform-origin: 0px 0px; visibility: visible"></path><path d="M26.6198 31.2493C27.8856 31.2493 29.1229 30.8739 30.1754 30.1707C31.2278 29.4675 32.0481 28.468 32.5325 27.2985C33.0169 26.1291 33.1436 24.8423 32.8967 23.6009C32.6497 22.3594 32.0402 21.2191 31.1452 20.324C30.2502 19.429 29.1098 18.8195 27.8684 18.5725C26.6269 18.3256 25.3401 18.4523 24.1707 18.9367C23.0013 19.4211 22.0018 20.2414 21.2985 21.2939C20.5953 22.3463 20.22 23.5836 20.22 24.8494C20.222 26.5461 20.8969 28.1728 22.0967 29.3726C23.2964 30.5723 24.9231 31.2473 26.6198 31.2493ZM26.6198 29.5618C25.5173 29.56 24.4502 29.1721 23.604 28.4653C22.7578 27.7586 22.1858 26.7777 21.9876 25.6932H31.2512C31.053 26.7776 30.4812 27.7583 29.6351 28.4651C28.7891 29.1718 27.7222 29.5598 26.6198 29.5618ZM26.6198 20.1379C27.7221 20.1397 28.789 20.5275 29.6351 21.2341C30.4811 21.9407 31.0529 22.9213 31.2512 24.0057H21.9876C22.1859 22.9212 22.7578 21.9404 23.6041 21.2338C24.4503 20.5272 25.5174 20.1395 26.6198 20.1379ZM34.0448 16.0508C34.2469 16.1467 34.4788 16.1585 34.6896 16.0835C34.9003 16.0085 35.0726 15.8529 35.1687 15.6509L36.2225 13.4293L37.4738 15.2855C37.3499 15.5602 37.2974 15.8618 37.321 16.1623C37.3447 16.4627 37.4438 16.7523 37.6093 17.0043C37.7747 17.2562 38.001 17.4623 38.2673 17.6035C38.5335 17.7447 38.8311 17.8163 39.1325 17.8119C39.4338 17.8074 39.7292 17.7269 39.9912 17.5779C40.2531 17.4289 40.4732 17.2162 40.6311 16.9594C40.789 16.7027 40.8795 16.4103 40.8942 16.1093C40.909 15.8082 40.8475 15.5084 40.7155 15.2374L42.9498 12.545C43.0205 12.4597 43.0738 12.3613 43.1065 12.2554C43.1392 12.1495 43.1507 12.0382 43.1404 11.9278C43.1301 11.8175 43.0982 11.7102 43.0464 11.6122C42.9947 11.5142 42.9241 11.4273 42.8388 11.3566C42.7535 11.2858 42.6551 11.2326 42.5492 11.1999C42.4433 11.1672 42.332 11.1556 42.2216 11.1659C42.1113 11.1762 42.004 11.2082 41.906 11.2599C41.808 11.3117 41.7211 11.3822 41.6504 11.4675L39.3478 14.2426C39.2682 14.2296 39.1879 14.2217 39.1073 14.219C39.0077 14.2207 38.9083 14.2306 38.8103 14.2485L36.7938 11.2625C36.7104 11.1392 36.596 11.0401 36.462 10.9753C36.3281 10.9105 36.1794 10.8823 36.031 10.8935C35.8826 10.9047 35.7398 10.955 35.6171 11.0392C35.4944 11.1234 35.3962 11.2386 35.3324 11.373L33.6449 14.9303C33.55 15.132 33.5388 15.3631 33.6137 15.573C33.6887 15.783 33.8437 15.9547 34.0448 16.0508Z" style="fill: rgb(255, 255, 255); transform-origin: 0px 0px; visibility: visible"></path></svg>