<?xml version="1.0" encoding="UTF-8"?>
<svg width="100" height="101" viewBox="0 0 100 101" fill="none" xmlns="http://www.w3.org/2000/svg" class="fill-white group-hover:fill-[#FDC145] transition-all duration-300 stroke-2" style="fill: rgb(255, 255, 255); height: 101px; stroke-width: 2px; transition-duration: 0.3s; transition-timing-function: cubic-bezier(0.4, 0, 0.2, 1); visibility: visible; width: 100px"><path fill-rule="evenodd" clip-rule="evenodd" d="M48.6328 95.3225V78.19C43.5387 78.2586 38.207 78.7133 32.9771 79.6537C35.7635 86.167 41.0393 94.3896 48.6328 95.3225ZM66.0305 39.7484C66.0305 48.6016 33.9693 48.6016 33.9693 39.7484C33.9693 30.8955 41.1473 23.7186 50.0004 23.7186C58.8537 23.7186 66.0305 30.8955 66.0305 39.7484ZM42.5914 12.0398C42.5914 16.1318 45.9084 19.4488 50.0006 19.4488C54.0926 19.4488 57.4096 16.1318 57.4096 12.0398C57.4096 7.94902 54.0926 4.63184 50.0006 4.63184C45.9086 4.63184 42.5914 7.94902 42.5914 12.0398ZM62.5693 18.7158C62.5693 22.0127 65.2416 24.6848 68.5385 24.6848C71.8352 24.6848 74.5074 22.0125 74.5074 18.7158C74.5074 15.4201 71.8352 12.7477 68.5385 12.7477C65.2416 12.7477 62.5693 15.4199 62.5693 18.7158ZM35.5412 46.143C33.1639 44.7764 31.2352 42.7166 31.2352 39.7484C31.2352 35.5697 32.6023 31.7102 34.9129 28.5914C33.7891 28.2809 32.6284 28.1238 31.4625 28.1246C24.3301 28.1246 18.5473 33.9066 18.5473 41.0389C18.5473 45.368 28.0613 47.0688 35.5412 46.143ZM81.4527 41.0391C81.4527 33.9068 75.6707 28.1246 68.5383 28.1246C67.3432 28.1246 66.1859 28.2877 65.0875 28.5916C67.3979 31.7104 68.7648 35.5697 68.7648 39.7484C68.7648 42.7166 66.8361 44.7764 64.4588 46.143C71.9387 47.0688 81.4527 45.368 81.4527 41.0391ZM25.4936 18.7158C25.4936 22.0127 28.1658 24.685 31.4627 24.685C34.7594 24.685 37.4316 22.0127 37.4316 18.7158C37.4316 15.4201 34.7594 12.7477 31.4627 12.7477C28.1658 12.7477 25.4936 15.4201 25.4936 18.7158ZM18.2793 45.7918C12.4973 47.2258 3.125 46.0723 3.125 42.3295C3.125 36.9178 7.5127 32.5307 12.9246 32.5307C14.5669 32.5282 16.1831 32.9404 17.6236 33.7291C16.4684 35.9111 15.8131 38.3984 15.8131 41.0389C15.8129 43.082 16.8354 44.6387 18.2793 45.7918ZM96.875 42.3295C96.875 46.0721 87.5025 47.2256 81.7207 45.7916C83.1648 44.6385 84.1871 43.0818 84.1871 41.0389C84.1871 38.3984 83.532 35.9113 82.3768 33.7293C83.8174 32.9406 85.4338 32.5283 87.0762 32.5307C92.4879 32.5307 96.875 36.918 96.875 42.3295ZM8.39551 25.3918C8.39551 27.8934 10.4232 29.9209 12.9246 29.9209C15.426 29.9209 17.4535 27.8934 17.4535 25.3918C17.4535 22.8912 15.426 20.8635 12.9246 20.8635C10.4232 20.8635 8.39551 22.891 8.39551 25.3918ZM82.5471 25.3918C82.5471 27.8934 84.5748 29.9209 87.0762 29.9209C89.5775 29.9209 91.6051 27.8934 91.6051 25.3918C91.6051 22.8912 89.5775 20.8635 87.0762 20.8635C84.5748 20.8635 82.5471 22.891 82.5471 25.3918ZM74.9777 52.874C74.8377 62.0301 73.2949 70.5312 70.7451 77.6211C75.5875 78.691 80.0252 80.1277 83.9076 81.8586C90.8377 74.1217 95.1584 63.999 95.4867 52.874H74.9777ZM81.9039 83.9578C75.1646 90.5842 66.3705 95.127 56.5648 96.544C62.8182 93.4246 67.1268 86.5111 69.7477 80.1992C74.21 81.1598 78.3029 82.4322 81.9039 83.9578ZM43.4352 96.5438C33.6289 95.1268 24.8346 90.5836 18.0953 83.9566C21.9109 82.3352 26.024 81.0977 30.249 80.191C32.8701 86.5059 37.1791 93.4232 43.4352 96.5438ZM16.092 81.8584C20.2225 80.0133 24.6809 78.6199 29.2518 77.6127C26.7037 70.5246 25.1623 62.0264 25.0221 52.874H4.51328C4.84141 63.999 9.16211 74.1215 16.092 81.8584ZM27.757 52.874H48.6328V75.4553C43.217 75.5266 37.5279 76.025 31.9502 77.0647C29.4289 70.2008 27.898 61.8824 27.757 52.874ZM51.3672 52.874H72.243C72.1018 61.8852 70.5699 70.2059 68.0475 77.0711C62.848 76.0975 57.2311 75.5316 51.3672 75.4553V52.874ZM67.0203 79.6598C62.1354 78.7768 56.8688 78.2633 51.3672 78.19V95.3227C58.9588 94.3898 64.234 86.1711 67.0203 79.6598Z" style="fill: rgb(255, 255, 255); fill-rule: evenodd; stroke-width: 2px; transform-origin: 0px 0px; visibility: visible"></path></svg>