<?xml version="1.0" encoding="UTF-8"?>
<svg width="49" height="44" viewBox="0 0 49 44" fill="none" xmlns="http://www.w3.org/2000/svg" class="fill-white group-hover:fill-[#FDC145] transition-all duration-300" style="fill: rgb(255, 255, 255); height: 44px; transition-duration: 0.3s; transition-timing-function: cubic-bezier(0.4, 0, 0.2, 1); visibility: visible; width: 49px"><path d="M2.3154 14.5497C2.70695 14.1596 3.23714 13.9406 3.78985 13.9406C4.34256 13.9406 4.87274 14.1596 5.2643 14.5497C5.9722 15.2563 6.93158 15.6532 7.93182 15.6532C8.93206 15.6532 9.89143 15.2563 10.5993 14.5497C10.9908 14.1594 11.521 13.9402 12.0738 13.9402C12.6266 13.9402 13.1568 14.1594 13.5482 14.5497C14.256 15.2565 15.2154 15.6536 16.2158 15.6536C17.2161 15.6536 18.1755 15.2565 18.8833 14.5497C19.2748 14.1596 19.805 13.9406 20.3577 13.9406C20.9104 13.9406 21.4406 14.1596 21.8322 14.5497C22.5402 15.2564 23.4997 15.6533 24.5001 15.6533C25.5005 15.6533 26.46 15.2564 27.1681 14.5497C27.5596 14.1596 28.0898 13.9406 28.6425 13.9406C29.1952 13.9406 29.7254 14.1596 30.117 14.5497C30.8249 15.2563 31.7842 15.6532 32.7845 15.6532C33.7847 15.6532 34.7441 15.2563 35.452 14.5497C35.8434 14.1594 36.3737 13.9402 36.9264 13.9402C37.4792 13.9402 38.0094 14.1594 38.4009 14.5497C39.1087 15.2565 40.0681 15.6536 41.0684 15.6536C42.0687 15.6536 43.0281 15.2565 43.7359 14.5497C44.1275 14.1596 44.6577 13.9406 45.2104 13.9406C45.7631 13.9406 46.2933 14.1596 46.6848 14.5497C46.844 14.7034 47.0571 14.7884 47.2783 14.7865C47.4996 14.7846 47.7112 14.6958 47.8676 14.5394C48.0241 14.383 48.1128 14.1713 48.1147 13.9501C48.1166 13.7289 48.0316 13.5158 47.8779 13.3566C47.1698 12.6504 46.2105 12.2538 45.2104 12.2538C44.2103 12.2538 43.251 12.6504 42.5429 13.3566C42.1513 13.7467 41.6211 13.9657 41.0684 13.9657C40.5157 13.9657 39.9855 13.7467 39.594 13.3566C38.8863 12.6496 37.9268 12.2524 36.9264 12.2524C35.9261 12.2524 34.9666 12.6496 34.2589 13.3566C33.8674 13.7467 33.3372 13.9657 32.7845 13.9657C32.2318 13.9657 31.7016 13.7467 31.31 13.3566C30.6021 12.65 29.6427 12.2531 28.6425 12.2531C27.6423 12.2531 26.6829 12.65 25.975 13.3566C25.5834 13.747 25.053 13.9662 24.5001 13.9662C23.9472 13.9662 23.4168 13.747 23.0252 13.3566C22.3171 12.6504 21.3578 12.2538 20.3577 12.2538C19.3576 12.2538 18.3983 12.6504 17.6902 13.3566C17.2987 13.7467 16.7685 13.9657 16.2158 13.9657C15.663 13.9657 15.1329 13.7467 14.7413 13.3566C14.0336 12.6496 13.0742 12.2524 12.0738 12.2524C11.0734 12.2524 10.114 12.6496 9.40627 13.3566C9.01471 13.7467 8.48453 13.9657 7.93182 13.9657C7.37911 13.9657 6.84892 13.7467 6.45736 13.3566C5.74946 12.65 4.79009 12.2531 3.78985 12.2531C2.78961 12.2531 1.83024 12.65 1.12233 13.3566C1.04175 13.4345 0.977468 13.5276 0.933248 13.6305C0.889027 13.7334 0.865751 13.8442 0.864778 13.9562C0.863804 14.0682 0.885153 14.1793 0.927577 14.283C0.970002 14.3867 1.03265 14.4809 1.11187 14.5601C1.1911 14.6394 1.2853 14.702 1.389 14.7444C1.49269 14.7869 1.6038 14.8082 1.71583 14.8072C1.82786 14.8063 1.93858 14.783 2.04152 14.7388C2.14446 14.6946 2.23756 14.6303 2.3154 14.5497ZM45.2108 17.3425C44.7151 17.3411 44.224 17.4381 43.7661 17.6278C43.3081 17.8175 42.8923 18.0963 42.5429 18.4478C42.3493 18.6415 42.1194 18.7952 41.8663 18.9C41.6133 19.0048 41.3421 19.0587 41.0682 19.0586C40.7944 19.0585 40.5232 19.0045 40.2702 18.8995C40.0173 18.7946 39.7875 18.6408 39.594 18.447C39.2437 18.0966 38.8278 17.8187 38.37 17.6291C37.9123 17.4396 37.4217 17.342 36.9263 17.3421C36.4308 17.3422 35.9403 17.4399 35.4826 17.6296C35.0249 17.8193 34.6091 18.0974 34.2589 18.4478C34.0653 18.6415 33.8354 18.7952 33.5824 18.9C33.3294 19.0048 33.0582 19.0587 32.7843 19.0586C32.5104 19.0585 32.2393 19.0045 31.9863 18.8995C31.7333 18.7946 31.5035 18.6408 31.31 18.447C30.9597 18.0966 30.5438 17.8187 30.0861 17.6291C29.6284 17.4396 29.1378 17.342 28.6423 17.3421C28.1469 17.3422 27.6563 17.4399 27.1987 17.6296C26.741 17.8193 26.3252 18.0974 25.975 18.4478C25.7814 18.6416 25.5514 18.7954 25.2983 18.9003C25.0452 19.0052 24.7739 19.0591 24.4999 19.059C24.226 19.0589 23.9547 19.0048 23.7017 18.8998C23.4486 18.7948 23.2188 18.6409 23.0252 18.447C22.6749 18.0966 22.259 17.8187 21.8013 17.6291C21.3436 17.4396 20.853 17.342 20.3575 17.3421C19.8621 17.3422 19.3715 17.4399 18.9139 17.6296C18.4562 17.8193 18.0404 18.0974 17.6902 18.4478C17.4966 18.6415 17.2667 18.7952 17.0137 18.9C16.7607 19.0048 16.4895 19.0587 16.2156 19.0586C15.9417 19.0585 15.6705 19.0045 15.4176 18.8995C15.1646 18.7946 14.9348 18.6408 14.7413 18.447C14.391 18.0966 13.9751 17.8187 13.5174 17.6291C13.0596 17.4396 12.569 17.342 12.0736 17.3421C11.5782 17.3422 11.0876 17.4399 10.6299 17.6296C10.1723 17.8193 9.75646 18.0974 9.40627 18.4478C9.21266 18.6415 8.98277 18.7952 8.72975 18.9C8.47672 19.0048 8.20552 19.0587 7.93164 19.0586C7.65777 19.0585 7.3866 19.0045 7.13363 18.8995C6.88066 18.7946 6.65086 18.6408 6.45736 18.447C5.74946 17.7403 4.79009 17.3434 3.78985 17.3434C2.78961 17.3434 1.83024 17.7403 1.12233 18.447C0.968637 18.6061 0.883592 18.8192 0.885514 19.0405C0.887437 19.2617 0.976173 19.4733 1.13261 19.6298C1.28905 19.7862 1.50067 19.8749 1.7219 19.8768C1.94313 19.8788 2.15626 19.7937 2.3154 19.64C2.509 19.4463 2.73889 19.2927 2.99192 19.1879C3.24495 19.0831 3.51615 19.0292 3.79002 19.0292C4.0639 19.0293 4.33507 19.0834 4.58804 19.1883C4.841 19.2933 5.0708 19.4471 5.2643 19.6409C5.97405 20.3441 6.93283 20.7386 7.93199 20.7384C8.93115 20.7383 9.88981 20.3435 10.5993 19.64C10.9917 19.2513 11.5217 19.0333 12.074 19.0334C12.6263 19.0336 13.1561 19.2519 13.5482 19.6409C14.2579 20.3442 15.2166 20.7389 16.2158 20.7389C17.2149 20.7389 18.1736 20.3442 18.8833 19.6409C19.0768 19.4471 19.3067 19.2934 19.5597 19.1885C19.8127 19.0836 20.0839 19.0297 20.3577 19.0297C20.6316 19.0297 20.9028 19.0836 21.1558 19.1885C21.4088 19.2934 21.6386 19.4471 21.8322 19.6409C22.5419 20.3445 23.5008 20.7393 24.5001 20.7393C25.4995 20.7393 26.4584 20.3445 27.1681 19.6409C27.5604 19.2522 28.0903 19.0342 28.6425 19.0342C29.1947 19.0342 29.7246 19.2522 30.117 19.6409C30.8266 20.3442 31.7853 20.7389 32.7845 20.7389C33.7836 20.7389 34.7424 20.3442 35.452 19.6409C35.8442 19.252 36.3741 19.0338 36.9264 19.0338C37.4787 19.0338 38.0087 19.252 38.4009 19.6409C39.1105 20.3442 40.0693 20.7389 41.0684 20.7389C42.0676 20.7389 43.0263 20.3442 43.7359 19.6409C44.1275 19.2508 44.6577 19.0318 45.2104 19.0318C45.7631 19.0318 46.2933 19.2508 46.6848 19.6409C46.8431 19.7991 47.0576 19.8879 47.2814 19.8879C47.5051 19.8879 47.7197 19.7991 47.8779 19.6409C48.9182 18.2926 46.2562 17.2893 45.2108 17.3425ZM39.594 25.5243C39.7521 25.3661 39.841 25.1515 39.841 24.9278C39.841 24.7041 39.7521 24.4895 39.594 24.3313C38.8863 23.6242 37.9268 23.227 36.9264 23.227C35.9261 23.227 34.9666 23.6242 34.2589 24.3313C33.8674 24.7214 33.3372 24.9404 32.7845 24.9404C32.2318 24.9404 31.7016 24.7214 31.31 24.3313C30.6021 23.6246 29.6427 23.2277 28.6425 23.2277C27.6423 23.2277 26.6829 23.6246 25.975 24.3313C25.5834 24.7216 25.053 24.9408 24.5001 24.9408C23.9472 24.9408 23.4168 24.7216 23.0252 24.3313C22.3171 23.625 21.3578 23.2284 20.3577 23.2284C19.3576 23.2284 18.3983 23.625 17.6902 24.3313C17.2987 24.7214 16.7685 24.9404 16.2158 24.9404C15.663 24.9404 15.1329 24.7214 14.7413 24.3313C14.0336 23.6242 13.0742 23.227 12.0738 23.227C11.0734 23.227 10.114 23.6242 9.40627 24.3313C9.25257 24.4904 9.16753 24.7035 9.16945 24.9248C9.17137 25.146 9.26011 25.3576 9.41655 25.5141C9.57299 25.6705 9.78461 25.7592 10.0058 25.7612C10.2271 25.7631 10.4402 25.678 10.5993 25.5243C10.9908 25.134 11.521 24.9149 12.0738 24.9149C12.6266 24.9149 13.1568 25.134 13.5482 25.5243C14.256 26.2312 15.2154 26.6282 16.2158 26.6282C17.2161 26.6282 18.1755 26.2312 18.8833 25.5243C19.2748 25.1343 19.805 24.9152 20.3577 24.9152C20.9104 24.9152 21.4406 25.1343 21.8322 25.5243C22.5402 26.231 23.4997 26.628 24.5001 26.628C25.5005 26.628 26.46 26.231 27.1681 25.5243C27.5596 25.1343 28.0898 24.9152 28.6425 24.9152C29.1952 24.9152 29.7254 25.1343 30.117 25.5243C30.8251 26.2306 31.7844 26.6272 32.7845 26.6272C33.7846 26.6272 34.7439 26.2306 35.452 25.5243C35.8432 25.1336 36.3735 24.9142 36.9264 24.9142C37.4794 24.9142 38.0097 25.1336 38.4009 25.5243C38.5591 25.6825 38.7737 25.7714 38.9974 25.7714C39.2212 25.7714 39.4357 25.6825 39.594 25.5243ZM32.6482 8.8645C32.887 9.15842 33.1883 9.39539 33.5302 9.55815C33.8721 9.72091 34.246 9.80537 34.6247 9.80537C35.0034 9.80537 35.3773 9.72091 35.7192 9.55815C36.0611 9.39539 36.3624 9.15842 36.6012 8.8645L38.6591 6.29359C38.7989 6.11882 38.8636 5.89565 38.839 5.67318C38.8143 5.4507 38.7022 5.24714 38.5275 5.10728C38.3527 4.96742 38.1295 4.90272 37.907 4.9274C37.6846 4.95209 37.481 5.06414 37.3411 5.23891L35.4689 7.57947V0.90625C35.4689 0.682474 35.38 0.467863 35.2217 0.309629C35.0635 0.151395 34.8489 0.0625 34.6251 0.0625C34.4013 0.0625 34.1867 0.151395 34.0285 0.309629C33.8703 0.467863 33.7814 0.682474 33.7814 0.90625V7.57947L31.9082 5.23891C31.7659 5.0722 31.5642 4.96744 31.346 4.94681C31.1278 4.92617 30.9101 4.99129 30.739 5.12836C30.5679 5.26544 30.4569 5.46371 30.4295 5.6812C30.402 5.8987 30.4603 6.11833 30.592 6.29359L32.6482 8.8645ZM12.3982 8.8645C12.637 9.15842 12.9383 9.39539 13.2802 9.55815C13.6221 9.72091 13.996 9.80537 14.3747 9.80537C14.7534 9.80537 15.1273 9.72091 15.4692 9.55815C15.8111 9.39539 16.1124 9.15842 16.3512 8.8645L18.4091 6.29359C18.4783 6.20706 18.5299 6.10773 18.5607 6.00128C18.5916 5.89482 18.6012 5.78334 18.589 5.67318C18.5767 5.56302 18.5429 5.45634 18.4895 5.35925C18.436 5.26215 18.364 5.17653 18.2775 5.10728C18.1909 5.03803 18.0916 4.9865 17.9851 4.95564C17.8787 4.92477 17.7672 4.91518 17.657 4.9274C17.5469 4.93962 17.4402 4.97342 17.3431 5.02687C17.246 5.08032 17.1604 5.15237 17.0911 5.23891L15.2189 7.57947V0.90625C15.2189 0.682474 15.13 0.467863 14.9717 0.309629C14.8135 0.151395 14.5989 0.0625 14.3751 0.0625C14.1513 0.0625 13.9367 0.151395 13.7785 0.309629C13.6203 0.467863 13.5314 0.682474 13.5314 0.90625V7.57947L11.6582 5.23891C11.5159 5.0722 11.3142 4.96744 11.096 4.94681C10.8778 4.92617 10.6601 4.99129 10.489 5.12836C10.3179 5.26544 10.2069 5.46371 10.1795 5.6812C10.152 5.8987 10.2103 6.11833 10.342 6.29359L12.3982 8.8645ZM27.217 34.2411L25.3439 36.5817V29.9085C25.3439 29.6847 25.255 29.4701 25.0967 29.3118C24.9385 29.1536 24.7239 29.0647 24.5001 29.0647C24.2763 29.0647 24.0617 29.1536 23.9035 29.3118C23.7453 29.4701 23.6564 29.6847 23.6564 29.9085V36.5817L21.7832 34.2411C21.6409 34.0744 21.4392 33.9697 21.221 33.949C21.0028 33.9284 20.7851 33.9935 20.614 34.1306C20.4429 34.2677 20.3319 34.4659 20.3045 34.6834C20.277 34.9009 20.3353 35.1205 20.467 35.2958L22.5232 37.8667C22.7621 38.1604 23.0635 38.3971 23.4054 38.5597C23.7473 38.7222 24.1211 38.8066 24.4997 38.8066C24.8783 38.8066 25.2521 38.7222 25.594 38.5597C25.9359 38.3971 26.2372 38.1604 26.4762 37.8667L28.5341 35.2958C28.6033 35.2093 28.6549 35.1099 28.6857 35.0035C28.7166 34.897 28.7262 34.7856 28.714 34.6754C28.7017 34.5652 28.6679 34.4586 28.6145 34.3615C28.561 34.2644 28.489 34.1788 28.4025 34.1095C28.3159 34.0402 28.2166 33.9887 28.1101 33.9579C28.0037 33.927 27.8922 33.9174 27.782 33.9296C27.6719 33.9418 27.5652 33.9756 27.4681 34.0291C27.371 34.0825 27.2862 34.1546 27.217 34.2411ZM42.2189 30.5666C41.3238 30.5666 40.4653 30.9222 39.8324 31.5551C39.1994 32.188 38.8439 33.0465 38.8439 33.9416C38.8439 34.8367 39.1994 35.6951 39.8324 36.3281C40.4653 36.961 41.3238 37.3166 42.2189 37.3166C43.114 37.3166 43.9724 36.961 44.6053 36.3281C45.2383 35.6951 45.5939 34.8367 45.5939 33.9416C45.5939 33.0465 45.2383 32.188 44.6053 31.5551C43.9724 30.9222 43.114 30.5666 42.2189 30.5666ZM42.2189 35.6291C41.7713 35.6291 41.3421 35.4513 41.0256 35.1348C40.7092 34.8184 40.5314 34.3891 40.5314 33.9416C40.5314 33.494 40.7092 33.0648 41.0256 32.7483C41.3421 32.4319 41.7713 32.2541 42.2189 32.2541C42.6664 32.2541 43.0956 32.4319 43.4121 32.7483C43.7286 33.0648 43.9064 33.494 43.9064 33.9416C43.9064 34.3891 43.7286 34.8184 43.4121 35.1348C43.0956 35.4513 42.6664 35.6291 42.2189 35.6291ZM33.2447 37.1875C32.3496 37.1875 31.4912 37.5431 30.8583 38.176C30.2253 38.809 29.8697 39.6674 29.8697 40.5625C29.8697 41.4576 30.2253 42.316 30.8583 42.949C31.4912 43.5819 32.3496 43.9375 33.2447 43.9375C34.1398 43.9375 34.9983 43.5819 35.6312 42.949C36.2642 42.316 36.6197 41.4576 36.6197 40.5625C36.6197 39.6674 36.2642 38.809 35.6312 38.176C34.9983 37.5431 34.1398 37.1875 33.2447 37.1875ZM33.2447 42.25C32.7972 42.25 32.368 42.0722 32.0515 41.7557C31.735 41.4393 31.5572 41.0101 31.5572 40.5625C31.5572 40.1149 31.735 39.6857 32.0515 39.3693C32.368 39.0528 32.7972 38.875 33.2447 38.875C33.6923 38.875 34.1215 39.0528 34.438 39.3693C34.7544 39.6857 34.9322 40.1149 34.9322 40.5625C34.9322 41.0101 34.7544 41.4393 34.438 41.7557C34.1215 42.0722 33.6923 42.25 33.2447 42.25ZM14.3751 36.3522C13.48 36.3522 12.6216 36.7078 11.9886 37.3407C11.3557 37.9736 11.0001 38.8321 11.0001 39.7272C11.0001 40.6223 11.3557 41.4807 11.9886 42.1137C12.6216 42.7466 13.48 43.1022 14.3751 43.1022C15.2702 43.1022 16.1287 42.7466 16.7616 42.1137C17.3945 41.4807 17.7501 40.6223 17.7501 39.7272C17.7501 38.8321 17.3945 37.9736 16.7616 37.3407C16.1287 36.7078 15.2702 36.3522 14.3751 36.3522ZM14.3751 41.4147C13.9276 41.4147 13.4983 41.2369 13.1819 40.9204C12.8654 40.604 12.6876 40.1747 12.6876 39.7272C12.6876 39.2796 12.8654 38.8504 13.1819 38.5339C13.4983 38.2175 13.9276 38.0397 14.3751 38.0397C14.8227 38.0397 15.2519 38.2175 15.5684 38.5339C15.8848 38.8504 16.0626 39.2796 16.0626 39.7272C16.0626 40.1747 15.8848 40.604 15.5684 40.9204C15.2519 41.2369 14.8227 41.4147 14.3751 41.4147ZM5.09386 27.9062C4.19876 27.9062 3.34031 28.2618 2.70738 28.8948C2.07444 29.5277 1.71886 30.3861 1.71886 31.2812C1.71886 32.1764 2.07444 33.0348 2.70738 33.6677C3.34031 34.3007 4.19876 34.6562 5.09386 34.6562C5.98897 34.6562 6.84741 34.3007 7.48035 33.6677C8.11328 33.0348 8.46886 32.1764 8.46886 31.2812C8.46886 30.3861 8.11328 29.5277 7.48035 28.8948C6.84741 28.2618 5.98897 27.9062 5.09386 27.9062ZM5.09386 32.9688C4.64631 32.9688 4.21709 32.791 3.90062 32.4745C3.58415 32.158 3.40636 31.7288 3.40636 31.2812C3.40636 30.8337 3.58415 30.4045 3.90062 30.088C4.21709 29.7715 4.64631 29.5938 5.09386 29.5938C5.54142 29.5938 5.97064 29.7715 6.28711 30.088C6.60357 30.4045 6.78136 30.8337 6.78136 31.2812C6.78136 31.7288 6.60357 32.158 6.28711 32.4745C5.97064 32.791 5.54142 32.9688 5.09386 32.9688Z" style="fill: rgb(255, 255, 255); transform-origin: 0px 0px; visibility: visible"></path></svg>